<svg xmlns="http://www.w3.org/2000/svg" xmlns:xlink="http://www.w3.org/1999/xlink" version="1.1" width="940" height="788" viewBox="0 0 940 788" xml:space="preserve">
<desc>Created with Fabric.js 3.5.0</desc>
<defs>
</defs>
<rect x="0" y="0" width="100%" height="100%" fill="#ffffff"/>
<g transform="matrix(1.1542 0 0 1.1542 460.5505 393.9845)" id="904983">
<g style="">
		<g transform="matrix(0.7304 -0.683 0.683 0.7304 0 0.0002)" id="742588">
<g style="">
		<g transform="matrix(-2.663 0 0 -2.663 0.7567 -167.1428)" id="842609">
<path style="stroke: none; stroke-width: 1; stroke-dasharray: none; stroke-linecap: butt; stroke-dashoffset: 0; stroke-linejoin: miter; stroke-miterlimit: 4; is-custom-font: none; font-file-url: none; fill: rgb(0,153,255); fill-rule: nonzero; opacity: 1;" vector-effect="non-scaling-stroke" transform=" translate(-79, -78.5002)" d="M 154.666 37.5934 H 3.33409 C 1.49273 37.5934 0 39.0767 0 40.9067 C 0.0749556 84.2303 35.4007 119.332 79 119.407 C 122.615 119.369 157.962 84.2455 158 40.9067 C 158 39.0767 156.507 37.5934 154.666 37.5934 Z" stroke-linecap="round"/>
</g>
		<g transform="matrix(1 0 0 1 0 0.3453)" style="" id="33651">
		
<path xml:space="preserve" font-family="Acme" font-size="72" font-style="normal" font-weight="normal" style="stroke: none; stroke-width: 1; stroke-dasharray: none; stroke-linecap: butt; stroke-dashoffset: 0; stroke-linejoin: miter; stroke-miterlimit: 4; is-custom-font: none; font-file-url: none; fill: rgb(0,153,255); fill-rule: nonzero; opacity: 1; white-space: pre;" d="M-196.92-27.06L-197.71-19.36L-213.05-19.36L-213.48-6.11L-199.73-6.11L-200.52 1.52L-213.70 1.52L-213.77 3.90L-212.90 22.62L-222.98 22.62L-222.12 5.12L-222.98-27.06L-196.92-27.06ZM-184.10 22.62L-184.10 22.62Q-187.99 22.62-190.40 20.06Q-192.82 17.51-192.82 13.33L-192.82 13.33L-192.38 5.05L-193.18-12.23L-183.53-14.03L-184.46 7.86Q-184.46 10.95-183.35 12.39Q-182.23 13.83-179.78 13.83Q-177.34 13.83-173.02 11.39L-173.02 11.39L-173.02 7.07L-173.81-11.87L-164.09-13.67L-164.95 4.33L-164.88 10.23Q-164.88 14.84-162.50 19.52L-162.50 19.52L-169.99 22.83Q-172.37 18.15-172.87 15.35L-172.87 15.35Q-179.35 22.62-184.10 22.62ZM-135.14 4.40Q-135.14-0.57-136.01-2.22Q-136.87-3.88-140.04-3.88Q-143.21-3.88-147.24-1.36L-147.24-1.36L-147.24 3.90L-146.45 20.82L-156.10 22.62L-155.23 5.12Q-155.52-4.53-156.82-12.16L-156.82-12.16L-148.10-14.03Q-147.60-9.85-147.38-5.89L-147.38-5.89Q-146.30-7.33-144.94-8.74Q-143.57-10.14-140.62-11.91Q-137.66-13.67-134.39-13.67Q-131.11-13.67-128.88-11.11Q-126.65-8.56-126.65-4.17L-126.65-4.17L-127.08 3.90L-126.29 21.18L-136.01 22.98L-135.14 4.40ZM-105.98-5.10Q-109.15-5.10-110.88-2.83Q-112.61-0.57-112.61 4.11Q-112.61 8.79-110.84 11.64Q-109.08 14.48-105.70 14.48L-105.70 14.48Q-103.97 14.48-102.31 13.40Q-100.66 12.32-99.79 11.24L-99.79 11.24L-99.00 10.09L-95.40 13.83Q-95.62 14.19-95.94 14.84Q-96.26 15.49-97.52 17.15Q-98.78 18.80-100.19 20.06Q-101.59 21.32-103.82 22.37Q-106.06 23.41-108.50 23.41L-108.50 23.41Q-113.90 23.41-117.29 19.02Q-120.67 14.63-120.67 7.57L-120.67 7.57Q-120.67-1.21-115.56-7.84Q-110.45-14.46-103.61-14.46L-103.61-14.46Q-101.52-14.46-99.43-13.85Q-97.34-13.24-95.18-11.94L-95.18-11.94L-100.22-3.09Q-102.82-5.10-105.98-5.10ZM-92.02-12.23L-87.84-12.23L-87.84-20.08L-78.12-21.95L-79.06-12.23L-70.34-12.23L-71.14-6.33L-79.34-6.33L-79.70 8.72Q-79.70 12.11-79.06 13.22Q-78.41 14.34-76.68 14.34Q-74.95 14.34-72.07 13.55L-72.07 13.55L-71.64 18.66Q-76.39 22.62-79.99 22.62Q-83.59 22.62-85.90 19.99Q-88.20 17.36-88.20 13.11L-88.20 13.11L-87.77 5.05L-87.84-6.33L-92.81-6.33L-92.02-12.23ZM-65.09-12.23L-55.44-14.03L-56.30 3.90L-55.51 20.82L-65.16 22.62L-64.30 5.12L-65.09-12.23ZM-65.59-24.58Q-65.59-26.99-63.72-28.90Q-61.85-30.81-59.40-30.81Q-56.95-30.81-55.66-29.47Q-54.36-28.14-54.36-25.48Q-54.36-22.81-56.20-20.91Q-58.03-19.00-60.44-19.00Q-62.86-19.00-64.22-20.58Q-65.59-22.17-65.59-24.58ZM-49.68 7.57Q-49.68-1.65-44.71-8.05Q-39.74-14.46-33.08-14.46Q-26.42-14.46-22.72-10.14Q-19.01-5.82-19.01 1.31L-19.01 1.31Q-19.01 10.81-23.80 17.11Q-28.58 23.41-35.86 23.41L-35.86 23.41Q-41.83 23.41-45.76 18.91Q-49.68 14.41-49.68 7.57L-49.68 7.57ZM-27.07 5.05L-27.07 5.05Q-27.07-5.39-34.20-5.39L-34.20-5.39Q-41.62-5.39-41.62 4.40L-41.62 4.40Q-41.62 9.51-39.53 12.39Q-37.44 15.27-34.02 15.27Q-30.60 15.27-28.84 12.65Q-27.07 10.02-27.07 5.05ZM8.06 4.40Q8.06-0.57 7.20-2.22Q6.34-3.88 3.17-3.88Q0.00-3.88-4.03-1.36L-4.03-1.36L-4.03 3.90L-3.24 20.82L-12.89 22.62L-12.02 5.12Q-12.31-4.53-13.61-12.16L-13.61-12.16L-4.90-14.03Q-4.39-9.85-4.18-5.89L-4.18-5.89Q-3.10-7.33-1.73-8.74Q-0.36-10.14 2.59-11.91Q5.54-13.67 8.82-13.67Q12.10-13.67 14.33-11.11Q16.56-8.56 16.56-4.17L16.56-4.17L16.13 3.90L16.92 21.18L7.20 22.98L8.06 4.40ZM63.86 22.62L37.51 22.62L38.38 5.12L37.51-27.06L64.51-27.06L63.72-19.36L47.52-19.36L47.09-6.61L61.49-6.61L60.70 1.02L46.80 1.02L46.73 3.90L47.23 14.99L64.66 14.99L63.86 22.62ZM92.23 4.40Q92.23-0.57 91.37-2.22Q90.50-3.88 87.34-3.88Q84.17-3.88 80.14-1.36L80.14-1.36L80.14 3.90L80.93 20.82L71.28 22.62L72.14 5.12Q71.86-4.53 70.56-12.16L70.56-12.16L79.27-14.03Q79.78-9.85 79.99-5.89L79.99-5.89Q81.07-7.33 82.44-8.74Q83.81-10.14 86.76-11.91Q89.71-13.67 92.99-13.67Q96.26-13.67 98.50-11.11Q100.73-8.56 100.73-4.17L100.73-4.17L100.30 3.90L101.09 21.18L91.37 22.98L92.23 4.40ZM106.49 29.75L106.49 29.75Q106.49 23.41 118.30 19.81L118.30 19.81Q115.49 18.37 115.49 16.07L115.49 16.07Q115.49 15.13 116.21 14.19Q116.93 13.26 118.30 12.25L118.30 12.25L118.30 11.67Q113.11 11.67 110.05 8.79Q106.99 5.91 106.99 1.09L106.99 1.09Q106.99-5.17 112.10-9.82Q117.22-14.46 124.20-14.46L124.20-14.46Q126.00-14.46 129.46-13.74Q132.91-13.02 136.22-13.02L136.22-13.02L141.77-13.02L141.05-6.76L135.65-7.41Q136.37-5.32 136.37-2.65Q136.37 0.01 135.11 2.64Q133.85 5.27 132.08 6.85Q130.32 8.43 128.56 9.62Q126.79 10.81 125.53 11.71Q124.27 12.61 124.27 13.33L124.27 13.33Q124.27 14.70 127.15 15.71L127.15 15.71Q134.78 18.80 137.48 20.96Q140.18 23.12 140.18 26.29L140.18 26.29Q140.18 31.62 134.82 35.04Q129.46 38.46 122.04 38.46Q114.62 38.46 110.56 36.08Q106.49 33.71 106.49 29.75ZM128.23-0.49L128.23-0.49Q128.23-4.02 126.65-5.68Q125.06-7.33 121.68-7.33L121.68-7.33Q115.13-7.33 115.13-0.89Q115.13 5.55 122.11 5.55L122.11 5.55Q128.23 5.55 128.23-0.49ZM130.82 27.37L130.82 27.37Q130.82 26.07 129.46 24.96Q128.09 23.84 124.56 22.33L124.56 22.33Q119.30 23.77 117.32 24.99Q115.34 26.22 115.34 28.02Q115.34 29.82 117.32 30.93Q119.30 32.05 122.83 32.05Q126.36 32.05 128.59 30.75Q130.82 29.46 130.82 27.37ZM145.58-12.23L155.23-14.03L154.37 3.90L155.16 20.82L145.51 22.62L146.38 5.12L145.58-12.23ZM145.08-24.58Q145.08-26.99 146.95-28.90Q148.82-30.81 151.27-30.81Q153.72-30.81 155.02-29.47Q156.31-28.14 156.31-25.48Q156.31-22.81 154.48-20.91Q152.64-19.00 150.23-19.00Q147.82-19.00 146.45-20.58Q145.08-22.17 145.08-24.58ZM184.03 4.40Q184.03-0.57 183.17-2.22Q182.30-3.88 179.14-3.88Q175.97-3.88 171.94-1.36L171.94-1.36L171.94 3.90L172.73 20.82L163.08 22.62L163.94 5.12Q163.66-4.53 162.36-12.16L162.36-12.16L171.07-14.03Q171.58-9.85 171.79-5.89L171.79-5.89Q172.87-7.33 174.24-8.74Q175.61-10.14 178.56-11.91Q181.51-13.67 184.79-13.67Q188.06-13.67 190.30-11.11Q192.53-8.56 192.53-4.17L192.53-4.17L192.10 3.90L192.89 21.18L183.17 22.98L184.03 4.40ZM213.77 15.27L213.77 15.27Q215.86 15.27 218.16 14.19Q220.46 13.11 221.76 12.03L221.76 12.03L223.06 10.95L226.37 14.99Q225.65 16.21 224.14 17.79Q222.62 19.38 221.08 20.49Q219.53 21.61 216.97 22.51Q214.42 23.41 211.68 23.41L211.68 23.41Q205.85 23.41 202.18 18.98Q198.50 14.55 198.50 7.57L198.50 7.57Q198.50-1.21 203.62-7.84Q208.73-14.46 215.57-14.46L215.57-14.46Q220.82-14.46 223.74-11.51Q226.66-8.56 226.66-3.23L226.66-3.23Q226.66-0.06 225.58 3.97L225.58 3.97L224.14 5.48L206.14 7.14Q207.36 15.27 213.77 15.27ZM213.77-7.05L213.77-7.05Q210.60-7.05 208.44-4.49Q206.28-1.93 205.92 2.03L205.92 2.03L218.16 0.51Q218.38-1.14 218.38-2.22L218.38-2.22Q218.38-7.05 213.77-7.05Z"/></g>
		<g transform="matrix(2.663 0 0 2.663 1.0971 167.1461)" id="902489">
<path style="stroke: none; stroke-width: 1; stroke-dasharray: none; stroke-linecap: butt; stroke-dashoffset: 0; stroke-linejoin: miter; stroke-miterlimit: 4; is-custom-font: none; font-file-url: none; fill: rgb(0,153,255); fill-rule: nonzero; opacity: 1;" vector-effect="non-scaling-stroke" transform=" translate(-79, -78.5002)" d="M 154.666 37.5934 H 3.33409 C 1.49273 37.5934 0 39.0767 0 40.9067 C 0.0749556 84.2303 35.4007 119.332 79 119.407 C 122.615 119.369 157.962 84.2455 158 40.9067 C 158 39.0767 156.507 37.5934 154.666 37.5934 Z" stroke-linecap="round"/>
</g>
<path xml:space="preserve" font-family="Acme" font-size="72" font-style="normal" font-weight="normal" style="stroke: none; stroke-width: 1; stroke-dasharray: none; stroke-linecap: butt; stroke-dashoffset: 0; stroke-linejoin: miter; stroke-miterlimit: 4; is-custom-font: none; font-file-url: none; fill: rgb(0,153,255); fill-rule: nonzero; opacity: 1; white-space: pre;" d="M-196.92-27.06L-197.71-19.36L-213.05-19.36L-213.48-6.11L-199.73-6.11L-200.52 1.52L-213.70 1.52L-213.77 3.90L-212.90 22.62L-222.98 22.62L-222.12 5.12L-222.98-27.06L-196.92-27.06ZM-184.10 22.62L-184.10 22.62Q-187.99 22.62-190.40 20.06Q-192.82 17.51-192.82 13.33L-192.82 13.33L-192.38 5.05L-193.18-12.23L-183.53-14.03L-184.46 7.86Q-184.46 10.95-183.35 12.39Q-182.23 13.83-179.78 13.83Q-177.34 13.83-173.02 11.39L-173.02 11.39L-173.02 7.07L-173.81-11.87L-164.09-13.67L-164.95 4.33L-164.88 10.23Q-164.88 14.84-162.50 19.52L-162.50 19.52L-169.99 22.83Q-172.37 18.15-172.87 15.35L-172.87 15.35Q-179.35 22.62-184.10 22.62ZM-135.14 4.40Q-135.14-0.57-136.01-2.22Q-136.87-3.88-140.04-3.88Q-143.21-3.88-147.24-1.36L-147.24-1.36L-147.24 3.90L-146.45 20.82L-156.10 22.62L-155.23 5.12Q-155.52-4.53-156.82-12.16L-156.82-12.16L-148.10-14.03Q-147.60-9.85-147.38-5.89L-147.38-5.89Q-146.30-7.33-144.94-8.74Q-143.57-10.14-140.62-11.91Q-137.66-13.67-134.39-13.67Q-131.11-13.67-128.88-11.11Q-126.65-8.56-126.65-4.17L-126.65-4.17L-127.08 3.90L-126.29 21.18L-136.01 22.98L-135.14 4.40ZM-105.98-5.10Q-109.15-5.10-110.88-2.83Q-112.61-0.57-112.61 4.11Q-112.61 8.79-110.84 11.64Q-109.08 14.48-105.70 14.48L-105.70 14.48Q-103.97 14.48-102.31 13.40Q-100.66 12.32-99.79 11.24L-99.79 11.24L-99.00 10.09L-95.40 13.83Q-95.62 14.19-95.94 14.84Q-96.26 15.49-97.52 17.15Q-98.78 18.80-100.19 20.06Q-101.59 21.32-103.82 22.37Q-106.06 23.41-108.50 23.41L-108.50 23.41Q-113.90 23.41-117.29 19.02Q-120.67 14.63-120.67 7.57L-120.67 7.57Q-120.67-1.21-115.56-7.84Q-110.45-14.46-103.61-14.46L-103.61-14.46Q-101.52-14.46-99.43-13.85Q-97.34-13.24-95.18-11.94L-95.18-11.94L-100.22-3.09Q-102.82-5.10-105.98-5.10ZM-92.02-12.23L-87.84-12.23L-87.84-20.08L-78.12-21.95L-79.06-12.23L-70.34-12.23L-71.14-6.33L-79.34-6.33L-79.70 8.72Q-79.70 12.11-79.06 13.22Q-78.41 14.34-76.68 14.34Q-74.95 14.34-72.07 13.55L-72.07 13.55L-71.64 18.66Q-76.39 22.62-79.99 22.62Q-83.59 22.62-85.90 19.99Q-88.20 17.36-88.20 13.11L-88.20 13.11L-87.77 5.05L-87.84-6.33L-92.81-6.33L-92.02-12.23ZM-65.09-12.23L-55.44-14.03L-56.30 3.90L-55.51 20.82L-65.16 22.62L-64.30 5.12L-65.09-12.23ZM-65.59-24.58Q-65.59-26.99-63.72-28.90Q-61.85-30.81-59.40-30.81Q-56.95-30.81-55.66-29.47Q-54.36-28.14-54.36-25.48Q-54.36-22.81-56.20-20.91Q-58.03-19.00-60.44-19.00Q-62.86-19.00-64.22-20.58Q-65.59-22.17-65.59-24.58ZM-49.68 7.57Q-49.68-1.65-44.71-8.05Q-39.74-14.46-33.08-14.46Q-26.42-14.46-22.72-10.14Q-19.01-5.82-19.01 1.31L-19.01 1.31Q-19.01 10.81-23.80 17.11Q-28.58 23.41-35.86 23.41L-35.86 23.41Q-41.83 23.41-45.76 18.91Q-49.68 14.41-49.68 7.57L-49.68 7.57ZM-27.07 5.05L-27.07 5.05Q-27.07-5.39-34.20-5.39L-34.20-5.39Q-41.62-5.39-41.62 4.40L-41.62 4.40Q-41.62 9.51-39.53 12.39Q-37.44 15.27-34.02 15.27Q-30.60 15.27-28.84 12.65Q-27.07 10.02-27.07 5.05ZM8.06 4.40Q8.06-0.57 7.20-2.22Q6.34-3.88 3.17-3.88Q0.00-3.88-4.03-1.36L-4.03-1.36L-4.03 3.90L-3.24 20.82L-12.89 22.62L-12.02 5.12Q-12.31-4.53-13.61-12.16L-13.61-12.16L-4.90-14.03Q-4.39-9.85-4.18-5.89L-4.18-5.89Q-3.10-7.33-1.73-8.74Q-0.36-10.14 2.59-11.91Q5.54-13.67 8.82-13.67Q12.10-13.67 14.33-11.11Q16.56-8.56 16.56-4.17L16.56-4.17L16.13 3.90L16.92 21.18L7.20 22.98L8.06 4.40ZM63.86 22.62L37.51 22.62L38.38 5.12L37.51-27.06L64.51-27.06L63.72-19.36L47.52-19.36L47.09-6.61L61.49-6.61L60.70 1.02L46.80 1.02L46.73 3.90L47.23 14.99L64.66 14.99L63.86 22.62ZM92.23 4.40Q92.23-0.57 91.37-2.22Q90.50-3.88 87.34-3.88Q84.17-3.88 80.14-1.36L80.14-1.36L80.14 3.90L80.93 20.82L71.28 22.62L72.14 5.12Q71.86-4.53 70.56-12.16L70.56-12.16L79.27-14.03Q79.78-9.85 79.99-5.89L79.99-5.89Q81.07-7.33 82.44-8.74Q83.81-10.14 86.76-11.91Q89.71-13.67 92.99-13.67Q96.26-13.67 98.50-11.11Q100.73-8.56 100.73-4.17L100.73-4.17L100.30 3.90L101.09 21.18L91.37 22.98L92.23 4.40ZM106.49 29.75L106.49 29.75Q106.49 23.41 118.30 19.81L118.30 19.81Q115.49 18.37 115.49 16.07L115.49 16.07Q115.49 15.13 116.21 14.19Q116.93 13.26 118.30 12.25L118.30 12.25L118.30 11.67Q113.11 11.67 110.05 8.79Q106.99 5.91 106.99 1.09L106.99 1.09Q106.99-5.17 112.10-9.82Q117.22-14.46 124.20-14.46L124.20-14.46Q126.00-14.46 129.46-13.74Q132.91-13.02 136.22-13.02L136.22-13.02L141.77-13.02L141.05-6.76L135.65-7.41Q136.37-5.32 136.37-2.65Q136.37 0.01 135.11 2.64Q133.85 5.27 132.08 6.85Q130.32 8.43 128.56 9.62Q126.79 10.81 125.53 11.71Q124.27 12.61 124.27 13.33L124.27 13.33Q124.27 14.70 127.15 15.71L127.15 15.71Q134.78 18.80 137.48 20.96Q140.18 23.12 140.18 26.29L140.18 26.29Q140.18 31.62 134.82 35.04Q129.46 38.46 122.04 38.46Q114.62 38.46 110.56 36.08Q106.49 33.71 106.49 29.75ZM128.23-0.49L128.23-0.49Q128.23-4.02 126.65-5.68Q125.06-7.33 121.68-7.33L121.68-7.33Q115.13-7.33 115.13-0.89Q115.13 5.55 122.11 5.55L122.11 5.55Q128.23 5.55 128.23-0.49ZM130.82 27.37L130.82 27.37Q130.82 26.07 129.46 24.96Q128.09 23.84 124.56 22.33L124.56 22.33Q119.30 23.77 117.32 24.99Q115.34 26.22 115.34 28.02Q115.34 29.82 117.32 30.93Q119.30 32.05 122.83 32.05Q126.36 32.05 128.59 30.75Q130.82 29.46 130.82 27.37ZM145.58-12.23L155.23-14.03L154.37 3.90L155.16 20.82L145.51 22.62L146.38 5.12L145.58-12.23ZM145.08-24.58Q145.08-26.99 146.95-28.90Q148.82-30.81 151.27-30.81Q153.72-30.81 155.02-29.47Q156.31-28.14 156.31-25.48Q156.31-22.81 154.48-20.91Q152.64-19.00 150.23-19.00Q147.82-19.00 146.45-20.58Q145.08-22.17 145.08-24.58ZM184.03 4.40Q184.03-0.57 183.17-2.22Q182.30-3.88 179.14-3.88Q175.97-3.88 171.94-1.36L171.94-1.36L171.94 3.90L172.73 20.82L163.08 22.62L163.94 5.12Q163.66-4.53 162.36-12.16L162.36-12.16L171.07-14.03Q171.58-9.85 171.79-5.89L171.79-5.89Q172.87-7.33 174.24-8.74Q175.61-10.14 178.56-11.91Q181.51-13.67 184.79-13.67Q188.06-13.67 190.30-11.11Q192.53-8.56 192.53-4.17L192.53-4.17L192.10 3.90L192.89 21.18L183.17 22.98L184.03 4.40ZM213.77 15.27L213.77 15.27Q215.86 15.27 218.16 14.19Q220.46 13.11 221.76 12.03L221.76 12.03L223.06 10.95L226.37 14.99Q225.65 16.21 224.14 17.79Q222.62 19.38 221.08 20.49Q219.53 21.61 216.97 22.51Q214.42 23.41 211.68 23.41L211.68 23.41Q205.85 23.41 202.18 18.98Q198.50 14.55 198.50 7.57L198.50 7.57Q198.50-1.21 203.62-7.84Q208.73-14.46 215.57-14.46L215.57-14.46Q220.82-14.46 223.74-11.51Q226.66-8.56 226.66-3.23L226.66-3.23Q226.66-0.06 225.58 3.97L225.58 3.97L224.14 5.48L206.14 7.14Q207.36 15.27 213.77 15.27ZM213.77-7.05L213.77-7.05Q210.60-7.05 208.44-4.49Q206.28-1.93 205.92 2.03L205.92 2.03L218.16 0.51Q218.38-1.14 218.38-2.22L218.38-2.22Q218.38-7.05 213.77-7.05Z"/><path xml:space="preserve" font-family="Acme" font-size="72" font-style="normal" font-weight="normal" style="stroke: none; stroke-width: 1; stroke-dasharray: none; stroke-linecap: butt; stroke-dashoffset: 0; stroke-linejoin: miter; stroke-miterlimit: 4; is-custom-font: none; font-file-url: none; fill: rgb(0,153,255); fill-rule: nonzero; opacity: 1; white-space: pre;" d="M-196.92-27.06L-197.71-19.36L-213.05-19.36L-213.48-6.11L-199.73-6.11L-200.52 1.52L-213.70 1.52L-213.77 3.90L-212.90 22.62L-222.98 22.62L-222.12 5.12L-222.98-27.06L-196.92-27.06ZM-184.10 22.62L-184.10 22.62Q-187.99 22.62-190.40 20.06Q-192.82 17.51-192.82 13.33L-192.82 13.33L-192.38 5.05L-193.18-12.23L-183.53-14.03L-184.46 7.86Q-184.46 10.95-183.35 12.39Q-182.23 13.83-179.78 13.83Q-177.34 13.83-173.02 11.39L-173.02 11.39L-173.02 7.07L-173.81-11.87L-164.09-13.67L-164.95 4.33L-164.88 10.23Q-164.88 14.84-162.50 19.52L-162.50 19.52L-169.99 22.83Q-172.37 18.15-172.87 15.35L-172.87 15.35Q-179.35 22.62-184.10 22.62ZM-135.14 4.40Q-135.14-0.57-136.01-2.22Q-136.87-3.88-140.04-3.88Q-143.21-3.88-147.24-1.36L-147.24-1.36L-147.24 3.90L-146.45 20.82L-156.10 22.62L-155.23 5.12Q-155.52-4.53-156.82-12.16L-156.82-12.16L-148.10-14.03Q-147.60-9.85-147.38-5.89L-147.38-5.89Q-146.30-7.33-144.94-8.74Q-143.57-10.14-140.62-11.91Q-137.66-13.67-134.39-13.67Q-131.11-13.67-128.88-11.11Q-126.65-8.56-126.65-4.17L-126.65-4.17L-127.08 3.90L-126.29 21.18L-136.01 22.98L-135.14 4.40ZM-105.98-5.10Q-109.15-5.10-110.88-2.83Q-112.61-0.57-112.61 4.11Q-112.61 8.79-110.84 11.64Q-109.08 14.48-105.70 14.48L-105.70 14.48Q-103.97 14.48-102.31 13.40Q-100.66 12.32-99.79 11.24L-99.79 11.24L-99.00 10.09L-95.40 13.83Q-95.62 14.19-95.94 14.84Q-96.26 15.49-97.52 17.15Q-98.78 18.80-100.19 20.06Q-101.59 21.32-103.82 22.37Q-106.06 23.41-108.50 23.41L-108.50 23.41Q-113.90 23.41-117.29 19.02Q-120.67 14.63-120.67 7.57L-120.67 7.57Q-120.67-1.21-115.56-7.84Q-110.45-14.46-103.61-14.46L-103.61-14.46Q-101.52-14.46-99.43-13.85Q-97.34-13.24-95.18-11.94L-95.18-11.94L-100.22-3.09Q-102.82-5.10-105.98-5.10ZM-92.02-12.23L-87.84-12.23L-87.84-20.08L-78.12-21.95L-79.06-12.23L-70.34-12.23L-71.14-6.33L-79.34-6.33L-79.70 8.72Q-79.70 12.11-79.06 13.22Q-78.41 14.34-76.68 14.34Q-74.95 14.34-72.07 13.55L-72.07 13.55L-71.64 18.66Q-76.39 22.62-79.99 22.62Q-83.59 22.62-85.90 19.99Q-88.20 17.36-88.20 13.11L-88.20 13.11L-87.77 5.05L-87.84-6.33L-92.81-6.33L-92.02-12.23ZM-65.09-12.23L-55.44-14.03L-56.30 3.90L-55.51 20.82L-65.16 22.62L-64.30 5.12L-65.09-12.23ZM-65.59-24.58Q-65.59-26.99-63.72-28.90Q-61.85-30.81-59.40-30.81Q-56.95-30.81-55.66-29.47Q-54.36-28.14-54.36-25.48Q-54.36-22.81-56.20-20.91Q-58.03-19.00-60.44-19.00Q-62.86-19.00-64.22-20.58Q-65.59-22.17-65.59-24.58ZM-49.68 7.57Q-49.68-1.65-44.71-8.05Q-39.74-14.46-33.08-14.46Q-26.42-14.46-22.72-10.14Q-19.01-5.82-19.01 1.31L-19.01 1.31Q-19.01 10.81-23.80 17.11Q-28.58 23.41-35.86 23.41L-35.86 23.41Q-41.83 23.41-45.76 18.91Q-49.68 14.41-49.68 7.57L-49.68 7.57ZM-27.07 5.05L-27.07 5.05Q-27.07-5.39-34.20-5.39L-34.20-5.39Q-41.62-5.39-41.62 4.40L-41.62 4.40Q-41.62 9.51-39.53 12.39Q-37.44 15.27-34.02 15.27Q-30.60 15.27-28.84 12.65Q-27.07 10.02-27.07 5.05ZM8.06 4.40Q8.06-0.57 7.20-2.22Q6.34-3.88 3.17-3.88Q0.00-3.88-4.03-1.36L-4.03-1.36L-4.03 3.90L-3.24 20.82L-12.89 22.62L-12.02 5.12Q-12.31-4.53-13.61-12.16L-13.61-12.16L-4.90-14.03Q-4.39-9.85-4.18-5.89L-4.18-5.89Q-3.10-7.33-1.73-8.74Q-0.36-10.14 2.59-11.91Q5.54-13.67 8.82-13.67Q12.10-13.67 14.33-11.11Q16.56-8.56 16.56-4.17L16.56-4.17L16.13 3.90L16.92 21.18L7.20 22.98L8.06 4.40ZM63.86 22.62L37.51 22.62L38.38 5.12L37.51-27.06L64.51-27.06L63.72-19.36L47.52-19.36L47.09-6.61L61.49-6.61L60.70 1.02L46.80 1.02L46.73 3.90L47.23 14.99L64.66 14.99L63.86 22.62ZM92.23 4.40Q92.23-0.57 91.37-2.22Q90.50-3.88 87.34-3.88Q84.17-3.88 80.14-1.36L80.14-1.36L80.14 3.90L80.93 20.82L71.28 22.62L72.14 5.12Q71.86-4.53 70.56-12.16L70.56-12.16L79.27-14.03Q79.78-9.85 79.99-5.89L79.99-5.89Q81.07-7.33 82.44-8.74Q83.81-10.14 86.76-11.91Q89.71-13.67 92.99-13.67Q96.26-13.67 98.50-11.11Q100.73-8.56 100.73-4.17L100.73-4.17L100.30 3.90L101.09 21.18L91.37 22.98L92.23 4.40ZM106.49 29.75L106.49 29.75Q106.49 23.41 118.30 19.81L118.30 19.81Q115.49 18.37 115.49 16.07L115.49 16.07Q115.49 15.13 116.21 14.19Q116.93 13.26 118.30 12.25L118.30 12.25L118.30 11.67Q113.11 11.67 110.05 8.79Q106.99 5.91 106.99 1.09L106.99 1.09Q106.99-5.17 112.10-9.82Q117.22-14.46 124.20-14.46L124.20-14.46Q126.00-14.46 129.46-13.74Q132.91-13.02 136.22-13.02L136.22-13.02L141.77-13.02L141.05-6.76L135.65-7.41Q136.37-5.32 136.37-2.65Q136.37 0.01 135.11 2.64Q133.85 5.27 132.08 6.85Q130.32 8.43 128.56 9.62Q126.79 10.81 125.53 11.71Q124.27 12.61 124.27 13.33L124.27 13.33Q124.27 14.70 127.15 15.71L127.15 15.71Q134.78 18.80 137.48 20.96Q140.18 23.12 140.18 26.29L140.18 26.29Q140.18 31.62 134.82 35.04Q129.46 38.46 122.04 38.46Q114.62 38.46 110.56 36.08Q106.49 33.71 106.49 29.75ZM128.23-0.49L128.23-0.49Q128.23-4.02 126.65-5.68Q125.06-7.33 121.68-7.33L121.68-7.33Q115.13-7.33 115.13-0.89Q115.13 5.55 122.11 5.55L122.11 5.55Q128.23 5.55 128.23-0.49ZM130.82 27.37L130.82 27.37Q130.82 26.07 129.46 24.96Q128.09 23.84 124.56 22.33L124.56 22.33Q119.30 23.77 117.32 24.99Q115.34 26.22 115.34 28.02Q115.34 29.82 117.32 30.93Q119.30 32.05 122.83 32.05Q126.36 32.05 128.59 30.75Q130.82 29.46 130.82 27.37ZM145.58-12.23L155.23-14.03L154.37 3.90L155.16 20.82L145.51 22.62L146.38 5.12L145.58-12.23ZM145.08-24.58Q145.08-26.99 146.95-28.90Q148.82-30.81 151.27-30.81Q153.72-30.81 155.02-29.47Q156.31-28.14 156.31-25.48Q156.31-22.81 154.48-20.91Q152.64-19.00 150.23-19.00Q147.82-19.00 146.45-20.58Q145.08-22.17 145.08-24.58ZM184.03 4.40Q184.03-0.57 183.17-2.22Q182.30-3.88 179.14-3.88Q175.97-3.88 171.94-1.36L171.94-1.36L171.94 3.90L172.73 20.82L163.08 22.62L163.94 5.12Q163.66-4.53 162.36-12.16L162.36-12.16L171.07-14.03Q171.58-9.85 171.79-5.89L171.79-5.89Q172.87-7.33 174.24-8.74Q175.61-10.14 178.56-11.91Q181.51-13.67 184.79-13.67Q188.06-13.67 190.30-11.11Q192.53-8.56 192.53-4.17L192.53-4.17L192.10 3.90L192.89 21.18L183.17 22.98L184.03 4.40ZM213.77 15.27L213.77 15.27Q215.86 15.27 218.16 14.19Q220.46 13.11 221.76 12.03L221.76 12.03L223.06 10.95L226.37 14.99Q225.65 16.21 224.14 17.79Q222.62 19.38 221.08 20.49Q219.53 21.61 216.97 22.51Q214.42 23.41 211.68 23.41L211.68 23.41Q205.85 23.41 202.18 18.98Q198.50 14.55 198.50 7.57L198.50 7.57Q198.50-1.21 203.62-7.84Q208.73-14.46 215.57-14.46L215.57-14.46Q220.82-14.46 223.74-11.51Q226.66-8.56 226.66-3.23L226.66-3.23Q226.66-0.06 225.58 3.97L225.58 3.97L224.14 5.48L206.14 7.14Q207.36 15.27 213.77 15.27ZM213.77-7.05L213.77-7.05Q210.60-7.05 208.44-4.49Q206.28-1.93 205.92 2.03L205.92 2.03L218.16 0.51Q218.38-1.14 218.38-2.22L218.38-2.22Q218.38-7.05 213.77-7.05Z"/><path xml:space="preserve" font-family="Acme" font-size="72" font-style="normal" font-weight="normal" style="stroke: none; stroke-width: 1; stroke-dasharray: none; stroke-linecap: butt; stroke-dashoffset: 0; stroke-linejoin: miter; stroke-miterlimit: 4; is-custom-font: none; font-file-url: none; fill: rgb(0,153,255); fill-rule: nonzero; opacity: 1; white-space: pre;" d="M-196.92-27.06L-197.71-19.36L-213.05-19.36L-213.48-6.11L-199.73-6.11L-200.52 1.52L-213.70 1.52L-213.77 3.90L-212.90 22.62L-222.98 22.62L-222.12 5.12L-222.98-27.06L-196.92-27.06ZM-184.10 22.62L-184.10 22.62Q-187.99 22.62-190.40 20.06Q-192.82 17.51-192.82 13.33L-192.82 13.33L-192.38 5.05L-193.18-12.23L-183.53-14.03L-184.46 7.86Q-184.46 10.95-183.35 12.39Q-182.23 13.83-179.78 13.83Q-177.34 13.83-173.02 11.39L-173.02 11.39L-173.02 7.07L-173.81-11.87L-164.09-13.67L-164.95 4.33L-164.88 10.23Q-164.88 14.84-162.50 19.52L-162.50 19.52L-169.99 22.83Q-172.37 18.15-172.87 15.35L-172.87 15.35Q-179.35 22.62-184.10 22.62ZM-135.14 4.40Q-135.14-0.57-136.01-2.22Q-136.87-3.88-140.04-3.88Q-143.21-3.88-147.24-1.36L-147.24-1.36L-147.24 3.90L-146.45 20.82L-156.10 22.62L-155.23 5.12Q-155.52-4.53-156.82-12.16L-156.82-12.16L-148.10-14.03Q-147.60-9.85-147.38-5.89L-147.38-5.89Q-146.30-7.33-144.94-8.74Q-143.57-10.14-140.62-11.91Q-137.66-13.67-134.39-13.67Q-131.11-13.67-128.88-11.11Q-126.65-8.56-126.65-4.17L-126.65-4.17L-127.08 3.90L-126.29 21.18L-136.01 22.98L-135.14 4.40ZM-105.98-5.10Q-109.15-5.10-110.88-2.83Q-112.61-0.57-112.61 4.11Q-112.61 8.79-110.84 11.64Q-109.08 14.48-105.70 14.48L-105.70 14.48Q-103.97 14.48-102.31 13.40Q-100.66 12.32-99.79 11.24L-99.79 11.24L-99.00 10.09L-95.40 13.83Q-95.62 14.19-95.94 14.84Q-96.26 15.49-97.52 17.15Q-98.78 18.80-100.19 20.06Q-101.59 21.32-103.82 22.37Q-106.06 23.41-108.50 23.41L-108.50 23.41Q-113.90 23.41-117.29 19.02Q-120.67 14.63-120.67 7.57L-120.67 7.57Q-120.67-1.21-115.56-7.84Q-110.45-14.46-103.61-14.46L-103.61-14.46Q-101.52-14.46-99.43-13.85Q-97.34-13.24-95.18-11.94L-95.18-11.94L-100.22-3.09Q-102.82-5.10-105.98-5.10ZM-92.02-12.23L-87.84-12.23L-87.84-20.08L-78.12-21.95L-79.06-12.23L-70.34-12.23L-71.14-6.33L-79.34-6.33L-79.70 8.72Q-79.70 12.11-79.06 13.22Q-78.41 14.34-76.68 14.34Q-74.95 14.34-72.07 13.55L-72.07 13.55L-71.64 18.66Q-76.39 22.62-79.99 22.62Q-83.59 22.62-85.90 19.99Q-88.20 17.36-88.20 13.11L-88.20 13.11L-87.77 5.05L-87.84-6.33L-92.81-6.33L-92.02-12.23ZM-65.09-12.23L-55.44-14.03L-56.30 3.90L-55.51 20.82L-65.16 22.62L-64.30 5.12L-65.09-12.23ZM-65.59-24.58Q-65.59-26.99-63.72-28.90Q-61.85-30.81-59.40-30.81Q-56.95-30.81-55.66-29.47Q-54.36-28.14-54.36-25.48Q-54.36-22.81-56.20-20.91Q-58.03-19.00-60.44-19.00Q-62.86-19.00-64.22-20.58Q-65.59-22.17-65.59-24.58ZM-49.68 7.57Q-49.68-1.65-44.71-8.05Q-39.74-14.46-33.08-14.46Q-26.42-14.46-22.72-10.14Q-19.01-5.82-19.01 1.31L-19.01 1.31Q-19.01 10.81-23.80 17.11Q-28.58 23.41-35.86 23.41L-35.86 23.41Q-41.83 23.41-45.76 18.91Q-49.68 14.41-49.68 7.57L-49.68 7.57ZM-27.07 5.05L-27.07 5.05Q-27.07-5.39-34.20-5.39L-34.20-5.39Q-41.62-5.39-41.62 4.40L-41.62 4.40Q-41.62 9.51-39.53 12.39Q-37.44 15.27-34.02 15.27Q-30.60 15.27-28.84 12.65Q-27.07 10.02-27.07 5.05ZM8.06 4.40Q8.06-0.57 7.20-2.22Q6.34-3.88 3.17-3.88Q0.00-3.88-4.03-1.36L-4.03-1.36L-4.03 3.90L-3.24 20.82L-12.89 22.62L-12.02 5.12Q-12.31-4.53-13.61-12.16L-13.61-12.16L-4.90-14.03Q-4.39-9.85-4.18-5.89L-4.18-5.89Q-3.10-7.33-1.73-8.74Q-0.36-10.14 2.59-11.91Q5.54-13.67 8.82-13.67Q12.10-13.67 14.33-11.11Q16.56-8.56 16.56-4.17L16.56-4.17L16.13 3.90L16.92 21.18L7.20 22.98L8.06 4.40ZM63.86 22.62L37.51 22.62L38.38 5.12L37.51-27.06L64.51-27.06L63.72-19.36L47.52-19.36L47.09-6.61L61.49-6.61L60.70 1.02L46.80 1.02L46.73 3.90L47.23 14.99L64.66 14.99L63.86 22.62ZM92.23 4.40Q92.23-0.57 91.37-2.22Q90.50-3.88 87.34-3.88Q84.17-3.88 80.14-1.36L80.14-1.36L80.14 3.90L80.93 20.82L71.28 22.62L72.14 5.12Q71.86-4.53 70.56-12.16L70.56-12.16L79.27-14.03Q79.78-9.85 79.99-5.89L79.99-5.89Q81.07-7.33 82.44-8.74Q83.81-10.14 86.76-11.91Q89.71-13.67 92.99-13.67Q96.26-13.67 98.50-11.11Q100.73-8.56 100.73-4.17L100.73-4.17L100.30 3.90L101.09 21.18L91.37 22.98L92.23 4.40ZM106.49 29.75L106.49 29.75Q106.49 23.41 118.30 19.81L118.30 19.81Q115.49 18.37 115.49 16.07L115.49 16.07Q115.49 15.13 116.21 14.19Q116.93 13.26 118.30 12.25L118.30 12.25L118.30 11.67Q113.11 11.67 110.05 8.79Q106.99 5.91 106.99 1.09L106.99 1.09Q106.99-5.17 112.10-9.82Q117.22-14.46 124.20-14.46L124.20-14.46Q126.00-14.46 129.46-13.74Q132.91-13.02 136.22-13.02L136.22-13.02L141.77-13.02L141.05-6.76L135.65-7.41Q136.37-5.32 136.37-2.65Q136.37 0.01 135.11 2.64Q133.85 5.27 132.08 6.85Q130.32 8.43 128.56 9.62Q126.79 10.81 125.53 11.71Q124.27 12.61 124.27 13.33L124.27 13.33Q124.27 14.70 127.15 15.71L127.15 15.71Q134.78 18.80 137.48 20.96Q140.18 23.12 140.18 26.29L140.18 26.29Q140.18 31.62 134.82 35.04Q129.46 38.46 122.04 38.46Q114.62 38.46 110.56 36.08Q106.49 33.71 106.49 29.75ZM128.23-0.49L128.23-0.49Q128.23-4.02 126.65-5.68Q125.06-7.33 121.68-7.33L121.68-7.33Q115.13-7.33 115.13-0.89Q115.13 5.55 122.11 5.55L122.11 5.55Q128.23 5.55 128.23-0.49ZM130.82 27.37L130.82 27.37Q130.82 26.07 129.46 24.96Q128.09 23.84 124.56 22.33L124.56 22.33Q119.30 23.77 117.32 24.99Q115.34 26.22 115.34 28.02Q115.34 29.82 117.32 30.93Q119.30 32.05 122.83 32.05Q126.36 32.05 128.59 30.75Q130.82 29.46 130.82 27.37ZM145.58-12.23L155.23-14.03L154.37 3.90L155.16 20.82L145.51 22.62L146.38 5.12L145.58-12.23ZM145.08-24.58Q145.08-26.99 146.95-28.90Q148.82-30.81 151.27-30.81Q153.72-30.81 155.02-29.47Q156.31-28.14 156.31-25.48Q156.31-22.81 154.48-20.91Q152.64-19.00 150.23-19.00Q147.82-19.00 146.45-20.58Q145.08-22.17 145.08-24.58ZM184.03 4.40Q184.03-0.57 183.17-2.22Q182.30-3.88 179.14-3.88Q175.97-3.88 171.94-1.36L171.94-1.36L171.94 3.90L172.73 20.82L163.08 22.62L163.94 5.12Q163.66-4.53 162.36-12.16L162.36-12.16L171.07-14.03Q171.58-9.85 171.79-5.89L171.79-5.89Q172.87-7.33 174.24-8.74Q175.61-10.14 178.56-11.91Q181.51-13.67 184.79-13.67Q188.06-13.67 190.30-11.11Q192.53-8.56 192.53-4.17L192.53-4.17L192.10 3.90L192.89 21.18L183.17 22.98L184.03 4.40ZM213.77 15.27L213.77 15.27Q215.86 15.27 218.16 14.19Q220.46 13.11 221.76 12.03L221.76 12.03L223.06 10.95L226.37 14.99Q225.65 16.21 224.14 17.79Q222.62 19.38 221.08 20.49Q219.53 21.61 216.97 22.51Q214.42 23.41 211.68 23.41L211.68 23.41Q205.85 23.41 202.18 18.98Q198.50 14.55 198.50 7.57L198.50 7.57Q198.50-1.21 203.62-7.84Q208.73-14.46 215.57-14.46L215.57-14.46Q220.82-14.46 223.74-11.51Q226.66-8.56 226.66-3.23L226.66-3.23Q226.66-0.06 225.58 3.97L225.58 3.97L224.14 5.48L206.14 7.14Q207.36 15.27 213.77 15.27ZM213.77-7.05L213.77-7.05Q210.60-7.05 208.44-4.49Q206.28-1.93 205.92 2.03L205.92 2.03L218.16 0.51Q218.38-1.14 218.38-2.22L218.38-2.22Q218.38-7.05 213.77-7.05Z"/><path xml:space="preserve" font-family="Acme" font-size="72" font-style="normal" font-weight="normal" style="stroke: none; stroke-width: 1; stroke-dasharray: none; stroke-linecap: butt; stroke-dashoffset: 0; stroke-linejoin: miter; stroke-miterlimit: 4; is-custom-font: none; font-file-url: none; fill: rgb(0,153,255); fill-rule: nonzero; opacity: 1; white-space: pre;" d="M-196.92-27.06L-197.71-19.36L-213.05-19.36L-213.48-6.11L-199.73-6.11L-200.52 1.52L-213.70 1.52L-213.77 3.90L-212.90 22.62L-222.98 22.62L-222.12 5.12L-222.98-27.06L-196.92-27.06ZM-184.10 22.62L-184.10 22.62Q-187.99 22.62-190.40 20.06Q-192.82 17.51-192.82 13.33L-192.82 13.33L-192.38 5.05L-193.18-12.23L-183.53-14.03L-184.46 7.86Q-184.46 10.95-183.35 12.39Q-182.23 13.83-179.78 13.83Q-177.34 13.83-173.02 11.39L-173.02 11.39L-173.02 7.07L-173.81-11.87L-164.09-13.67L-164.95 4.33L-164.88 10.23Q-164.88 14.84-162.50 19.52L-162.50 19.52L-169.99 22.83Q-172.37 18.15-172.87 15.35L-172.87 15.35Q-179.35 22.62-184.10 22.62ZM-135.14 4.40Q-135.14-0.57-136.01-2.22Q-136.87-3.88-140.04-3.88Q-143.21-3.88-147.24-1.36L-147.24-1.36L-147.24 3.90L-146.45 20.82L-156.10 22.62L-155.23 5.12Q-155.52-4.53-156.82-12.16L-156.82-12.16L-148.10-14.03Q-147.60-9.85-147.38-5.89L-147.38-5.89Q-146.30-7.33-144.94-8.74Q-143.57-10.14-140.62-11.91Q-137.66-13.67-134.39-13.67Q-131.11-13.67-128.88-11.11Q-126.65-8.56-126.65-4.17L-126.65-4.17L-127.08 3.90L-126.29 21.18L-136.01 22.98L-135.14 4.40ZM-105.98-5.10Q-109.15-5.10-110.88-2.83Q-112.61-0.57-112.61 4.11Q-112.61 8.79-110.84 11.64Q-109.08 14.48-105.70 14.48L-105.70 14.48Q-103.97 14.48-102.31 13.40Q-100.66 12.32-99.79 11.24L-99.79 11.24L-99.00 10.09L-95.40 13.83Q-95.62 14.19-95.94 14.84Q-96.26 15.49-97.52 17.15Q-98.78 18.80-100.19 20.06Q-101.59 21.32-103.82 22.37Q-106.06 23.41-108.50 23.41L-108.50 23.41Q-113.90 23.41-117.29 19.02Q-120.67 14.63-120.67 7.57L-120.67 7.57Q-120.67-1.21-115.56-7.84Q-110.45-14.46-103.61-14.46L-103.61-14.46Q-101.52-14.46-99.43-13.85Q-97.34-13.24-95.18-11.94L-95.18-11.94L-100.22-3.09Q-102.82-5.10-105.98-5.10ZM-92.02-12.23L-87.84-12.23L-87.84-20.08L-78.12-21.95L-79.06-12.23L-70.34-12.23L-71.14-6.33L-79.34-6.33L-79.70 8.72Q-79.70 12.11-79.06 13.22Q-78.41 14.34-76.68 14.34Q-74.95 14.34-72.07 13.55L-72.07 13.55L-71.64 18.66Q-76.39 22.62-79.99 22.62Q-83.59 22.62-85.90 19.99Q-88.20 17.36-88.20 13.11L-88.20 13.11L-87.77 5.05L-87.84-6.33L-92.81-6.33L-92.02-12.23ZM-65.09-12.23L-55.44-14.03L-56.30 3.90L-55.51 20.82L-65.16 22.62L-64.30 5.12L-65.09-12.23ZM-65.59-24.58Q-65.59-26.99-63.72-28.90Q-61.85-30.81-59.40-30.81Q-56.95-30.81-55.66-29.47Q-54.36-28.14-54.36-25.48Q-54.36-22.81-56.20-20.91Q-58.03-19.00-60.44-19.00Q-62.86-19.00-64.22-20.58Q-65.59-22.17-65.59-24.58ZM-49.68 7.57Q-49.68-1.65-44.71-8.05Q-39.74-14.46-33.08-14.46Q-26.42-14.46-22.72-10.14Q-19.01-5.82-19.01 1.31L-19.01 1.31Q-19.01 10.81-23.80 17.11Q-28.58 23.41-35.86 23.41L-35.86 23.41Q-41.83 23.41-45.76 18.91Q-49.68 14.41-49.68 7.57L-49.68 7.57ZM-27.07 5.05L-27.07 5.05Q-27.07-5.39-34.20-5.39L-34.20-5.39Q-41.62-5.39-41.62 4.40L-41.62 4.40Q-41.62 9.51-39.53 12.39Q-37.44 15.27-34.02 15.27Q-30.60 15.27-28.84 12.65Q-27.07 10.02-27.07 5.05ZM8.06 4.40Q8.06-0.57 7.20-2.22Q6.34-3.88 3.17-3.88Q0.00-3.88-4.03-1.36L-4.03-1.36L-4.03 3.90L-3.24 20.82L-12.89 22.62L-12.02 5.12Q-12.31-4.53-13.61-12.16L-13.61-12.16L-4.90-14.03Q-4.39-9.85-4.18-5.89L-4.18-5.89Q-3.10-7.33-1.73-8.74Q-0.36-10.14 2.59-11.91Q5.54-13.67 8.82-13.67Q12.10-13.67 14.33-11.11Q16.56-8.56 16.56-4.17L16.56-4.17L16.13 3.90L16.92 21.18L7.20 22.98L8.06 4.40ZM63.86 22.62L37.51 22.62L38.38 5.12L37.51-27.06L64.51-27.06L63.72-19.36L47.52-19.36L47.09-6.61L61.49-6.61L60.70 1.02L46.80 1.02L46.73 3.90L47.23 14.99L64.66 14.99L63.86 22.62ZM92.23 4.40Q92.23-0.57 91.37-2.22Q90.50-3.88 87.34-3.88Q84.17-3.88 80.14-1.36L80.14-1.36L80.14 3.90L80.93 20.82L71.28 22.62L72.14 5.12Q71.86-4.53 70.56-12.16L70.56-12.16L79.27-14.03Q79.78-9.85 79.99-5.89L79.99-5.89Q81.07-7.33 82.44-8.74Q83.81-10.14 86.76-11.91Q89.71-13.67 92.99-13.67Q96.26-13.67 98.50-11.11Q100.73-8.56 100.73-4.17L100.73-4.17L100.30 3.90L101.09 21.18L91.37 22.98L92.23 4.40ZM106.49 29.75L106.49 29.75Q106.49 23.41 118.30 19.81L118.30 19.81Q115.49 18.37 115.49 16.07L115.49 16.07Q115.49 15.13 116.21 14.19Q116.93 13.26 118.30 12.25L118.30 12.25L118.30 11.67Q113.11 11.67 110.05 8.79Q106.99 5.91 106.99 1.09L106.99 1.09Q106.99-5.17 112.10-9.82Q117.22-14.46 124.20-14.46L124.20-14.46Q126.00-14.46 129.46-13.74Q132.91-13.02 136.22-13.02L136.22-13.02L141.77-13.02L141.05-6.76L135.65-7.41Q136.37-5.32 136.37-2.65Q136.37 0.01 135.11 2.64Q133.85 5.27 132.08 6.85Q130.32 8.43 128.56 9.62Q126.79 10.81 125.53 11.71Q124.27 12.61 124.27 13.33L124.27 13.33Q124.27 14.70 127.15 15.71L127.15 15.71Q134.78 18.80 137.48 20.96Q140.18 23.12 140.18 26.29L140.18 26.29Q140.18 31.62 134.82 35.04Q129.46 38.46 122.04 38.46Q114.62 38.46 110.56 36.08Q106.49 33.71 106.49 29.75ZM128.23-0.49L128.23-0.49Q128.23-4.02 126.65-5.68Q125.06-7.33 121.68-7.33L121.68-7.33Q115.13-7.33 115.13-0.89Q115.13 5.55 122.11 5.55L122.11 5.55Q128.23 5.55 128.23-0.49ZM130.82 27.37L130.82 27.37Q130.82 26.07 129.46 24.96Q128.09 23.84 124.56 22.33L124.56 22.33Q119.30 23.77 117.32 24.99Q115.34 26.22 115.34 28.02Q115.34 29.82 117.32 30.93Q119.30 32.05 122.83 32.05Q126.36 32.05 128.59 30.75Q130.82 29.46 130.82 27.37ZM145.58-12.23L155.23-14.03L154.37 3.90L155.16 20.82L145.51 22.62L146.38 5.12L145.58-12.23ZM145.08-24.58Q145.08-26.99 146.95-28.90Q148.82-30.81 151.27-30.81Q153.72-30.81 155.02-29.47Q156.31-28.14 156.31-25.48Q156.31-22.81 154.48-20.91Q152.64-19.00 150.23-19.00Q147.82-19.00 146.45-20.58Q145.08-22.17 145.08-24.58ZM184.03 4.40Q184.03-0.57 183.17-2.22Q182.30-3.88 179.14-3.88Q175.97-3.88 171.94-1.36L171.94-1.36L171.94 3.90L172.73 20.82L163.08 22.62L163.94 5.12Q163.66-4.53 162.36-12.16L162.36-12.16L171.07-14.03Q171.58-9.85 171.79-5.89L171.79-5.89Q172.87-7.33 174.24-8.74Q175.61-10.14 178.56-11.91Q181.51-13.67 184.79-13.67Q188.06-13.67 190.30-11.11Q192.53-8.56 192.53-4.17L192.53-4.17L192.10 3.90L192.89 21.18L183.17 22.98L184.03 4.40ZM213.77 15.27L213.77 15.27Q215.86 15.27 218.16 14.19Q220.46 13.11 221.76 12.03L221.76 12.03L223.06 10.95L226.37 14.99Q225.65 16.21 224.14 17.79Q222.62 19.38 221.08 20.49Q219.53 21.61 216.97 22.51Q214.42 23.41 211.68 23.41L211.68 23.41Q205.85 23.41 202.18 18.98Q198.50 14.55 198.50 7.57L198.50 7.57Q198.50-1.21 203.62-7.84Q208.73-14.46 215.57-14.46L215.57-14.46Q220.82-14.46 223.74-11.51Q226.66-8.56 226.66-3.23L226.66-3.23Q226.66-0.06 225.58 3.97L225.58 3.97L224.14 5.48L206.14 7.14Q207.36 15.27 213.77 15.27ZM213.77-7.05L213.77-7.05Q210.60-7.05 208.44-4.49Q206.28-1.93 205.92 2.03L205.92 2.03L218.16 0.51Q218.38-1.14 218.38-2.22L218.38-2.22Q218.38-7.05 213.77-7.05Z"/></g>
<path xml:space="preserve" font-family="Acme" font-size="72" font-style="normal" font-weight="normal" style="stroke: none; stroke-width: 1; stroke-dasharray: none; stroke-linecap: butt; stroke-dashoffset: 0; stroke-linejoin: miter; stroke-miterlimit: 4; is-custom-font: none; font-file-url: none; fill: rgb(0,153,255); fill-rule: nonzero; opacity: 1; white-space: pre;" d="M-196.92-27.06L-197.71-19.36L-213.05-19.36L-213.48-6.11L-199.73-6.11L-200.52 1.52L-213.70 1.52L-213.77 3.90L-212.90 22.62L-222.98 22.62L-222.12 5.12L-222.98-27.06L-196.92-27.06ZM-184.10 22.62L-184.10 22.62Q-187.99 22.62-190.40 20.06Q-192.82 17.51-192.82 13.33L-192.82 13.33L-192.38 5.05L-193.18-12.23L-183.53-14.03L-184.46 7.86Q-184.46 10.95-183.35 12.39Q-182.23 13.83-179.78 13.83Q-177.34 13.83-173.02 11.39L-173.02 11.39L-173.02 7.07L-173.81-11.87L-164.09-13.67L-164.95 4.33L-164.88 10.23Q-164.88 14.84-162.50 19.52L-162.50 19.52L-169.99 22.83Q-172.37 18.15-172.87 15.35L-172.87 15.35Q-179.35 22.62-184.10 22.62ZM-135.14 4.40Q-135.14-0.57-136.01-2.22Q-136.87-3.88-140.04-3.88Q-143.21-3.88-147.24-1.36L-147.24-1.36L-147.24 3.90L-146.45 20.82L-156.10 22.62L-155.23 5.12Q-155.52-4.53-156.82-12.16L-156.82-12.16L-148.10-14.03Q-147.60-9.85-147.38-5.89L-147.38-5.89Q-146.30-7.33-144.94-8.74Q-143.57-10.14-140.62-11.91Q-137.66-13.67-134.39-13.67Q-131.11-13.67-128.88-11.11Q-126.65-8.56-126.65-4.17L-126.65-4.17L-127.08 3.90L-126.29 21.18L-136.01 22.98L-135.14 4.40ZM-105.98-5.10Q-109.15-5.10-110.88-2.83Q-112.61-0.57-112.61 4.11Q-112.61 8.79-110.84 11.64Q-109.08 14.48-105.70 14.48L-105.70 14.48Q-103.97 14.48-102.31 13.40Q-100.66 12.32-99.79 11.24L-99.79 11.24L-99.00 10.09L-95.40 13.83Q-95.62 14.19-95.94 14.84Q-96.26 15.49-97.52 17.15Q-98.78 18.80-100.19 20.06Q-101.59 21.32-103.82 22.37Q-106.06 23.41-108.50 23.41L-108.50 23.41Q-113.90 23.41-117.29 19.02Q-120.67 14.63-120.67 7.57L-120.67 7.57Q-120.67-1.21-115.56-7.84Q-110.45-14.46-103.61-14.46L-103.61-14.46Q-101.52-14.46-99.43-13.85Q-97.34-13.24-95.18-11.94L-95.18-11.94L-100.22-3.09Q-102.82-5.10-105.98-5.10ZM-92.02-12.23L-87.84-12.23L-87.84-20.08L-78.12-21.95L-79.06-12.23L-70.34-12.23L-71.14-6.33L-79.34-6.33L-79.70 8.72Q-79.70 12.11-79.06 13.22Q-78.41 14.34-76.68 14.34Q-74.95 14.34-72.07 13.55L-72.07 13.55L-71.64 18.66Q-76.39 22.62-79.99 22.62Q-83.59 22.62-85.90 19.99Q-88.20 17.36-88.20 13.11L-88.20 13.11L-87.77 5.05L-87.84-6.33L-92.81-6.33L-92.02-12.23ZM-65.09-12.23L-55.44-14.03L-56.30 3.90L-55.51 20.82L-65.16 22.62L-64.30 5.12L-65.09-12.23ZM-65.59-24.58Q-65.59-26.99-63.72-28.90Q-61.85-30.81-59.40-30.81Q-56.95-30.81-55.66-29.47Q-54.36-28.14-54.36-25.48Q-54.36-22.81-56.20-20.91Q-58.03-19.00-60.44-19.00Q-62.86-19.00-64.22-20.58Q-65.59-22.17-65.59-24.58ZM-49.68 7.57Q-49.68-1.65-44.71-8.05Q-39.74-14.46-33.08-14.46Q-26.42-14.46-22.72-10.14Q-19.01-5.82-19.01 1.31L-19.01 1.31Q-19.01 10.81-23.80 17.11Q-28.58 23.41-35.86 23.41L-35.86 23.41Q-41.83 23.41-45.76 18.91Q-49.68 14.41-49.68 7.57L-49.68 7.57ZM-27.07 5.05L-27.07 5.05Q-27.07-5.39-34.20-5.39L-34.20-5.39Q-41.62-5.39-41.62 4.40L-41.62 4.40Q-41.62 9.51-39.53 12.39Q-37.44 15.27-34.02 15.27Q-30.60 15.27-28.84 12.65Q-27.07 10.02-27.07 5.05ZM8.06 4.40Q8.06-0.57 7.20-2.22Q6.34-3.88 3.17-3.88Q0.00-3.88-4.03-1.36L-4.03-1.36L-4.03 3.90L-3.24 20.82L-12.89 22.62L-12.02 5.12Q-12.31-4.53-13.61-12.16L-13.61-12.16L-4.90-14.03Q-4.39-9.85-4.18-5.89L-4.18-5.89Q-3.10-7.33-1.73-8.74Q-0.36-10.14 2.59-11.91Q5.54-13.67 8.82-13.67Q12.10-13.67 14.33-11.11Q16.56-8.56 16.56-4.17L16.56-4.17L16.13 3.90L16.92 21.18L7.20 22.98L8.06 4.40ZM63.86 22.62L37.51 22.62L38.38 5.12L37.51-27.06L64.51-27.06L63.72-19.36L47.52-19.36L47.09-6.61L61.49-6.61L60.70 1.02L46.80 1.02L46.73 3.90L47.23 14.99L64.66 14.99L63.86 22.62ZM92.23 4.40Q92.23-0.57 91.37-2.22Q90.50-3.88 87.34-3.88Q84.17-3.88 80.14-1.36L80.14-1.36L80.14 3.90L80.93 20.82L71.28 22.62L72.14 5.12Q71.86-4.53 70.56-12.16L70.56-12.16L79.27-14.03Q79.78-9.85 79.99-5.89L79.99-5.89Q81.07-7.33 82.44-8.74Q83.81-10.14 86.76-11.91Q89.71-13.67 92.99-13.67Q96.26-13.67 98.50-11.11Q100.73-8.56 100.73-4.17L100.73-4.17L100.30 3.90L101.09 21.18L91.37 22.98L92.23 4.40ZM106.49 29.75L106.49 29.75Q106.49 23.41 118.30 19.81L118.30 19.81Q115.49 18.37 115.49 16.07L115.49 16.07Q115.49 15.13 116.21 14.19Q116.93 13.26 118.30 12.25L118.30 12.25L118.30 11.67Q113.11 11.67 110.05 8.79Q106.99 5.91 106.99 1.09L106.99 1.09Q106.99-5.17 112.10-9.82Q117.22-14.46 124.20-14.46L124.20-14.46Q126.00-14.46 129.46-13.74Q132.91-13.02 136.22-13.02L136.22-13.02L141.77-13.02L141.05-6.76L135.65-7.41Q136.37-5.32 136.37-2.65Q136.37 0.01 135.11 2.64Q133.85 5.27 132.08 6.85Q130.32 8.43 128.56 9.62Q126.79 10.81 125.53 11.71Q124.27 12.61 124.27 13.33L124.27 13.33Q124.27 14.70 127.15 15.71L127.15 15.71Q134.78 18.80 137.48 20.96Q140.18 23.12 140.18 26.29L140.18 26.29Q140.18 31.62 134.82 35.04Q129.46 38.46 122.04 38.46Q114.62 38.46 110.56 36.08Q106.49 33.71 106.49 29.75ZM128.23-0.49L128.23-0.49Q128.23-4.02 126.65-5.68Q125.06-7.33 121.68-7.33L121.68-7.33Q115.13-7.33 115.13-0.89Q115.13 5.55 122.11 5.55L122.11 5.55Q128.23 5.55 128.23-0.49ZM130.82 27.37L130.82 27.37Q130.82 26.07 129.46 24.96Q128.09 23.84 124.56 22.33L124.56 22.33Q119.30 23.77 117.32 24.99Q115.34 26.22 115.34 28.02Q115.34 29.82 117.32 30.93Q119.30 32.05 122.83 32.05Q126.36 32.05 128.59 30.75Q130.82 29.46 130.82 27.37ZM145.58-12.23L155.23-14.03L154.37 3.90L155.16 20.82L145.51 22.62L146.38 5.12L145.58-12.23ZM145.08-24.58Q145.08-26.99 146.95-28.90Q148.82-30.81 151.27-30.81Q153.72-30.81 155.02-29.47Q156.31-28.14 156.31-25.48Q156.31-22.81 154.48-20.91Q152.64-19.00 150.23-19.00Q147.82-19.00 146.45-20.58Q145.08-22.17 145.08-24.58ZM184.03 4.40Q184.03-0.57 183.17-2.22Q182.30-3.88 179.14-3.88Q175.97-3.88 171.94-1.36L171.94-1.36L171.94 3.90L172.73 20.82L163.08 22.62L163.94 5.12Q163.66-4.53 162.36-12.16L162.36-12.16L171.07-14.03Q171.58-9.85 171.79-5.89L171.79-5.89Q172.87-7.33 174.24-8.74Q175.61-10.14 178.56-11.91Q181.51-13.67 184.79-13.67Q188.06-13.67 190.30-11.11Q192.53-8.56 192.53-4.17L192.53-4.17L192.10 3.90L192.89 21.18L183.17 22.98L184.03 4.40ZM213.77 15.27L213.77 15.27Q215.86 15.27 218.16 14.19Q220.46 13.11 221.76 12.03L221.76 12.03L223.06 10.95L226.37 14.99Q225.65 16.21 224.14 17.79Q222.62 19.38 221.08 20.49Q219.53 21.61 216.97 22.51Q214.42 23.41 211.68 23.41L211.68 23.41Q205.85 23.41 202.18 18.98Q198.50 14.55 198.50 7.57L198.50 7.57Q198.50-1.21 203.62-7.84Q208.73-14.46 215.57-14.46L215.57-14.46Q220.82-14.46 223.74-11.51Q226.66-8.56 226.66-3.23L226.66-3.23Q226.66-0.06 225.58 3.97L225.58 3.97L224.14 5.48L206.14 7.14Q207.36 15.27 213.77 15.27ZM213.77-7.05L213.77-7.05Q210.60-7.05 208.44-4.49Q206.28-1.93 205.92 2.03L205.92 2.03L218.16 0.51Q218.38-1.14 218.38-2.22L218.38-2.22Q218.38-7.05 213.77-7.05Z"/></g>
		<g transform="matrix(15.5024 0 0 15.5024 108.0187 146.0555)" id="557718">
<path style="stroke: rgb(255,255,255); stroke-width: 6; stroke-dasharray: none; stroke-linecap: butt; stroke-dashoffset: 0; stroke-linejoin: miter; stroke-miterlimit: 4; is-custom-font: none; font-file-url: none; fill: rgb(251,192,45); fill-rule: nonzero; opacity: 1;" vector-effect="non-scaling-stroke" transform=" translate(-15.901, -16.2975)" d="M 18.774 19.7 a 3.727 3.727 0 0 0 3.376 2.078 c 1.418 0 2.324 -0.709 2.324 -1.688 c 0 -1.173 -0.931 -1.589 -2.491 -2.272 l -0.856 -0.367 c -2.469 -1.052 -4.11 -2.37 -4.11 -5.156 c 0 -2.567 1.956 -4.52 5.012 -4.52 A 5.058 5.058 0 0 1 26.9 10.52 l -2.665 1.711 a 2.327 2.327 0 0 0 -2.2 -1.467 a 1.489 1.489 0 0 0 -1.638 1.467 c 0 1.027 0.636 1.442 2.1 2.078 l 0.856 0.366 c 2.908 1.247 4.549 2.518 4.549 5.376 c 0 3.081 -2.42 4.769 -5.671 4.769 a 6.575 6.575 0 0 1 -6.236 -3.5 Z M 6.686 20 c 0.538 0.954 1.027 1.76 2.2 1.76 c 1.124 0 1.834 -0.44 1.834 -2.15 V 7.975 h 3.422 V 19.658 c 0 3.543 -2.078 5.156 -5.11 5.156 A 5.312 5.312 0 0 1 3.9 21.688 Z" stroke-linecap="round"/>
</g>
<path xml:space="preserve" font-family="Acme" font-size="72" font-style="normal" font-weight="normal" style="stroke: none; stroke-width: 1; stroke-dasharray: none; stroke-linecap: butt; stroke-dashoffset: 0; stroke-linejoin: miter; stroke-miterlimit: 4; is-custom-font: none; font-file-url: none; fill: rgb(0,153,255); fill-rule: nonzero; opacity: 1; white-space: pre;" d="M-196.92-27.06L-197.71-19.36L-213.05-19.36L-213.48-6.11L-199.73-6.11L-200.52 1.52L-213.70 1.52L-213.77 3.90L-212.90 22.62L-222.98 22.62L-222.12 5.12L-222.98-27.06L-196.92-27.06ZM-184.10 22.62L-184.10 22.62Q-187.99 22.62-190.40 20.06Q-192.82 17.51-192.82 13.33L-192.82 13.33L-192.38 5.05L-193.18-12.23L-183.53-14.03L-184.46 7.86Q-184.46 10.95-183.35 12.39Q-182.23 13.83-179.78 13.83Q-177.34 13.83-173.02 11.39L-173.02 11.39L-173.02 7.07L-173.81-11.87L-164.09-13.67L-164.95 4.33L-164.88 10.23Q-164.88 14.84-162.50 19.52L-162.50 19.52L-169.99 22.83Q-172.37 18.15-172.87 15.35L-172.87 15.35Q-179.35 22.62-184.10 22.62ZM-135.14 4.40Q-135.14-0.57-136.01-2.22Q-136.87-3.88-140.04-3.88Q-143.21-3.88-147.24-1.36L-147.24-1.36L-147.24 3.90L-146.45 20.82L-156.10 22.62L-155.23 5.12Q-155.52-4.53-156.82-12.16L-156.82-12.16L-148.10-14.03Q-147.60-9.85-147.38-5.89L-147.38-5.89Q-146.30-7.33-144.94-8.74Q-143.57-10.14-140.62-11.91Q-137.66-13.67-134.39-13.67Q-131.11-13.67-128.88-11.11Q-126.65-8.56-126.65-4.17L-126.65-4.17L-127.08 3.90L-126.29 21.18L-136.01 22.98L-135.14 4.40ZM-105.98-5.10Q-109.15-5.10-110.88-2.83Q-112.61-0.57-112.61 4.11Q-112.61 8.79-110.84 11.64Q-109.08 14.48-105.70 14.48L-105.70 14.48Q-103.97 14.48-102.31 13.40Q-100.66 12.32-99.79 11.24L-99.79 11.24L-99.00 10.09L-95.40 13.83Q-95.62 14.19-95.94 14.84Q-96.26 15.49-97.52 17.15Q-98.78 18.80-100.19 20.06Q-101.59 21.32-103.82 22.37Q-106.06 23.41-108.50 23.41L-108.50 23.41Q-113.90 23.41-117.29 19.02Q-120.67 14.63-120.67 7.57L-120.67 7.57Q-120.67-1.21-115.56-7.84Q-110.45-14.46-103.61-14.46L-103.61-14.46Q-101.52-14.46-99.43-13.85Q-97.34-13.24-95.18-11.94L-95.18-11.94L-100.22-3.09Q-102.82-5.10-105.98-5.10ZM-92.02-12.23L-87.84-12.23L-87.84-20.08L-78.12-21.95L-79.06-12.23L-70.34-12.23L-71.14-6.33L-79.34-6.33L-79.70 8.72Q-79.70 12.11-79.06 13.22Q-78.41 14.34-76.68 14.34Q-74.95 14.34-72.07 13.55L-72.07 13.55L-71.64 18.66Q-76.39 22.62-79.99 22.62Q-83.59 22.62-85.90 19.99Q-88.20 17.36-88.20 13.11L-88.20 13.11L-87.77 5.05L-87.84-6.33L-92.81-6.33L-92.02-12.23ZM-65.09-12.23L-55.44-14.03L-56.30 3.90L-55.51 20.82L-65.16 22.62L-64.30 5.12L-65.09-12.23ZM-65.59-24.58Q-65.59-26.99-63.72-28.90Q-61.85-30.81-59.40-30.81Q-56.95-30.81-55.66-29.47Q-54.36-28.14-54.36-25.48Q-54.36-22.81-56.20-20.91Q-58.03-19.00-60.44-19.00Q-62.86-19.00-64.22-20.58Q-65.59-22.17-65.59-24.58ZM-49.68 7.57Q-49.68-1.65-44.71-8.05Q-39.74-14.46-33.08-14.46Q-26.42-14.46-22.72-10.14Q-19.01-5.82-19.01 1.31L-19.01 1.31Q-19.01 10.81-23.80 17.11Q-28.58 23.41-35.86 23.41L-35.86 23.41Q-41.83 23.41-45.76 18.91Q-49.68 14.41-49.68 7.57L-49.68 7.57ZM-27.07 5.05L-27.07 5.05Q-27.07-5.39-34.20-5.39L-34.20-5.39Q-41.62-5.39-41.62 4.40L-41.62 4.40Q-41.62 9.51-39.53 12.39Q-37.44 15.27-34.02 15.27Q-30.60 15.27-28.84 12.65Q-27.07 10.02-27.07 5.05ZM8.06 4.40Q8.06-0.57 7.20-2.22Q6.34-3.88 3.17-3.88Q0.00-3.88-4.03-1.36L-4.03-1.36L-4.03 3.90L-3.24 20.82L-12.89 22.62L-12.02 5.12Q-12.31-4.53-13.61-12.16L-13.61-12.16L-4.90-14.03Q-4.39-9.85-4.18-5.89L-4.18-5.89Q-3.10-7.33-1.73-8.74Q-0.36-10.14 2.59-11.91Q5.54-13.67 8.82-13.67Q12.10-13.67 14.33-11.11Q16.56-8.56 16.56-4.17L16.56-4.17L16.13 3.90L16.92 21.18L7.20 22.98L8.06 4.40ZM63.86 22.62L37.51 22.62L38.38 5.12L37.51-27.06L64.51-27.06L63.72-19.36L47.52-19.36L47.09-6.61L61.49-6.61L60.70 1.02L46.80 1.02L46.73 3.90L47.23 14.99L64.66 14.99L63.86 22.62ZM92.23 4.40Q92.23-0.57 91.37-2.22Q90.50-3.88 87.34-3.88Q84.17-3.88 80.14-1.36L80.14-1.36L80.14 3.90L80.93 20.82L71.28 22.62L72.14 5.12Q71.86-4.53 70.56-12.16L70.56-12.16L79.27-14.03Q79.78-9.85 79.99-5.89L79.99-5.89Q81.07-7.33 82.44-8.74Q83.81-10.14 86.76-11.91Q89.71-13.67 92.99-13.67Q96.26-13.67 98.50-11.11Q100.73-8.56 100.73-4.17L100.73-4.17L100.30 3.90L101.09 21.18L91.37 22.98L92.23 4.40ZM106.49 29.75L106.49 29.75Q106.49 23.41 118.30 19.81L118.30 19.81Q115.49 18.37 115.49 16.07L115.49 16.07Q115.49 15.13 116.21 14.19Q116.93 13.26 118.30 12.25L118.30 12.25L118.30 11.67Q113.11 11.67 110.05 8.79Q106.99 5.91 106.99 1.09L106.99 1.09Q106.99-5.17 112.10-9.82Q117.22-14.46 124.20-14.46L124.20-14.46Q126.00-14.46 129.46-13.74Q132.91-13.02 136.22-13.02L136.22-13.02L141.77-13.02L141.05-6.76L135.65-7.41Q136.37-5.32 136.37-2.65Q136.37 0.01 135.11 2.64Q133.85 5.27 132.08 6.85Q130.32 8.43 128.56 9.62Q126.79 10.81 125.53 11.71Q124.27 12.61 124.27 13.33L124.27 13.33Q124.27 14.70 127.15 15.71L127.15 15.71Q134.78 18.80 137.48 20.96Q140.18 23.12 140.18 26.29L140.18 26.29Q140.18 31.62 134.82 35.04Q129.46 38.46 122.04 38.46Q114.62 38.46 110.56 36.08Q106.49 33.71 106.49 29.75ZM128.23-0.49L128.23-0.49Q128.23-4.02 126.65-5.68Q125.06-7.33 121.68-7.33L121.68-7.33Q115.13-7.33 115.13-0.89Q115.13 5.55 122.11 5.55L122.11 5.55Q128.23 5.55 128.23-0.49ZM130.82 27.37L130.82 27.37Q130.82 26.07 129.46 24.96Q128.09 23.84 124.56 22.33L124.56 22.33Q119.30 23.77 117.32 24.99Q115.34 26.22 115.34 28.02Q115.34 29.82 117.32 30.93Q119.30 32.05 122.83 32.05Q126.36 32.05 128.59 30.75Q130.82 29.46 130.82 27.37ZM145.58-12.23L155.23-14.03L154.37 3.90L155.16 20.82L145.51 22.62L146.38 5.12L145.58-12.23ZM145.08-24.58Q145.08-26.99 146.95-28.90Q148.82-30.81 151.27-30.81Q153.72-30.81 155.02-29.47Q156.31-28.14 156.31-25.48Q156.31-22.81 154.48-20.91Q152.64-19.00 150.23-19.00Q147.82-19.00 146.45-20.58Q145.08-22.17 145.08-24.58ZM184.03 4.40Q184.03-0.57 183.17-2.22Q182.30-3.88 179.14-3.88Q175.97-3.88 171.94-1.36L171.94-1.36L171.94 3.90L172.73 20.82L163.08 22.62L163.94 5.12Q163.66-4.53 162.36-12.16L162.36-12.16L171.07-14.03Q171.58-9.85 171.79-5.89L171.79-5.89Q172.87-7.33 174.24-8.74Q175.61-10.14 178.56-11.91Q181.51-13.67 184.79-13.67Q188.06-13.67 190.30-11.11Q192.53-8.56 192.53-4.17L192.53-4.17L192.10 3.90L192.89 21.18L183.17 22.98L184.03 4.40ZM213.77 15.27L213.77 15.27Q215.86 15.27 218.16 14.19Q220.46 13.11 221.76 12.03L221.76 12.03L223.06 10.95L226.37 14.99Q225.65 16.21 224.14 17.79Q222.62 19.38 221.08 20.49Q219.53 21.61 216.97 22.51Q214.42 23.41 211.68 23.41L211.68 23.41Q205.85 23.41 202.18 18.98Q198.50 14.55 198.50 7.57L198.50 7.57Q198.50-1.21 203.62-7.84Q208.73-14.46 215.57-14.46L215.57-14.46Q220.82-14.46 223.74-11.51Q226.66-8.56 226.66-3.23L226.66-3.23Q226.66-0.06 225.58 3.97L225.58 3.97L224.14 5.48L206.14 7.14Q207.36 15.27 213.77 15.27ZM213.77-7.05L213.77-7.05Q210.60-7.05 208.44-4.49Q206.28-1.93 205.92 2.03L205.92 2.03L218.16 0.51Q218.38-1.14 218.38-2.22L218.38-2.22Q218.38-7.05 213.77-7.05Z"/><path xml:space="preserve" font-family="Acme" font-size="72" font-style="normal" font-weight="normal" style="stroke: none; stroke-width: 1; stroke-dasharray: none; stroke-linecap: butt; stroke-dashoffset: 0; stroke-linejoin: miter; stroke-miterlimit: 4; is-custom-font: none; font-file-url: none; fill: rgb(0,153,255); fill-rule: nonzero; opacity: 1; white-space: pre;" d="M-196.92-27.06L-197.71-19.36L-213.05-19.36L-213.48-6.11L-199.73-6.11L-200.52 1.52L-213.70 1.52L-213.77 3.90L-212.90 22.62L-222.98 22.62L-222.12 5.12L-222.98-27.06L-196.92-27.06ZM-184.10 22.62L-184.10 22.62Q-187.99 22.62-190.40 20.06Q-192.82 17.51-192.82 13.33L-192.82 13.33L-192.38 5.05L-193.18-12.23L-183.53-14.03L-184.46 7.86Q-184.46 10.95-183.35 12.39Q-182.23 13.83-179.78 13.83Q-177.34 13.83-173.02 11.39L-173.02 11.39L-173.02 7.07L-173.81-11.87L-164.09-13.67L-164.95 4.33L-164.88 10.23Q-164.88 14.84-162.50 19.52L-162.50 19.52L-169.99 22.83Q-172.37 18.15-172.87 15.35L-172.87 15.35Q-179.35 22.62-184.10 22.62ZM-135.14 4.40Q-135.14-0.57-136.01-2.22Q-136.87-3.88-140.04-3.88Q-143.21-3.88-147.24-1.36L-147.24-1.36L-147.24 3.90L-146.45 20.82L-156.10 22.62L-155.23 5.12Q-155.52-4.53-156.82-12.16L-156.82-12.16L-148.10-14.03Q-147.60-9.85-147.38-5.89L-147.38-5.89Q-146.30-7.33-144.94-8.74Q-143.57-10.14-140.62-11.91Q-137.66-13.67-134.39-13.67Q-131.11-13.67-128.88-11.11Q-126.65-8.56-126.65-4.17L-126.65-4.17L-127.08 3.90L-126.29 21.18L-136.01 22.98L-135.14 4.40ZM-105.98-5.10Q-109.15-5.10-110.88-2.83Q-112.61-0.57-112.61 4.11Q-112.61 8.79-110.84 11.64Q-109.08 14.48-105.70 14.48L-105.70 14.48Q-103.97 14.48-102.31 13.40Q-100.66 12.32-99.79 11.24L-99.79 11.24L-99.00 10.09L-95.40 13.83Q-95.62 14.19-95.94 14.84Q-96.26 15.49-97.52 17.15Q-98.78 18.80-100.19 20.06Q-101.59 21.32-103.82 22.37Q-106.06 23.41-108.50 23.41L-108.50 23.41Q-113.90 23.41-117.29 19.02Q-120.67 14.63-120.67 7.57L-120.67 7.57Q-120.67-1.21-115.56-7.84Q-110.45-14.46-103.61-14.46L-103.61-14.46Q-101.52-14.46-99.43-13.85Q-97.34-13.24-95.18-11.94L-95.18-11.94L-100.22-3.09Q-102.82-5.10-105.98-5.10ZM-92.02-12.23L-87.84-12.23L-87.84-20.08L-78.12-21.95L-79.06-12.23L-70.34-12.23L-71.14-6.33L-79.34-6.33L-79.70 8.72Q-79.70 12.11-79.06 13.22Q-78.41 14.34-76.68 14.34Q-74.95 14.34-72.07 13.55L-72.07 13.55L-71.64 18.66Q-76.39 22.62-79.99 22.62Q-83.59 22.62-85.90 19.99Q-88.20 17.36-88.20 13.11L-88.20 13.11L-87.77 5.05L-87.84-6.33L-92.81-6.33L-92.02-12.23ZM-65.09-12.23L-55.44-14.03L-56.30 3.90L-55.51 20.82L-65.16 22.62L-64.30 5.12L-65.09-12.23ZM-65.59-24.58Q-65.59-26.99-63.72-28.90Q-61.85-30.81-59.40-30.81Q-56.95-30.81-55.66-29.47Q-54.36-28.14-54.36-25.48Q-54.36-22.81-56.20-20.91Q-58.03-19.00-60.44-19.00Q-62.86-19.00-64.22-20.58Q-65.59-22.17-65.59-24.58ZM-49.68 7.57Q-49.68-1.65-44.71-8.05Q-39.74-14.46-33.08-14.46Q-26.42-14.46-22.72-10.14Q-19.01-5.82-19.01 1.31L-19.01 1.31Q-19.01 10.81-23.80 17.11Q-28.58 23.41-35.86 23.41L-35.86 23.41Q-41.83 23.41-45.76 18.91Q-49.68 14.41-49.68 7.57L-49.68 7.57ZM-27.07 5.05L-27.07 5.05Q-27.07-5.39-34.20-5.39L-34.20-5.39Q-41.62-5.39-41.62 4.40L-41.62 4.40Q-41.62 9.51-39.53 12.39Q-37.44 15.27-34.02 15.27Q-30.60 15.27-28.84 12.65Q-27.07 10.02-27.07 5.05ZM8.06 4.40Q8.06-0.57 7.20-2.22Q6.34-3.88 3.17-3.88Q0.00-3.88-4.03-1.36L-4.03-1.36L-4.03 3.90L-3.24 20.82L-12.89 22.62L-12.02 5.12Q-12.31-4.53-13.61-12.16L-13.61-12.16L-4.90-14.03Q-4.39-9.85-4.18-5.89L-4.18-5.89Q-3.10-7.33-1.73-8.74Q-0.36-10.14 2.59-11.91Q5.54-13.67 8.82-13.67Q12.10-13.67 14.33-11.11Q16.56-8.56 16.56-4.17L16.56-4.17L16.13 3.90L16.92 21.18L7.20 22.98L8.06 4.40ZM63.86 22.62L37.51 22.62L38.38 5.12L37.51-27.06L64.51-27.06L63.72-19.36L47.52-19.36L47.09-6.61L61.49-6.61L60.70 1.02L46.80 1.02L46.73 3.90L47.23 14.99L64.66 14.99L63.86 22.62ZM92.23 4.40Q92.23-0.57 91.37-2.22Q90.50-3.88 87.34-3.88Q84.17-3.88 80.14-1.36L80.14-1.36L80.14 3.90L80.93 20.82L71.28 22.62L72.14 5.12Q71.86-4.53 70.56-12.16L70.56-12.16L79.27-14.03Q79.78-9.85 79.99-5.89L79.99-5.89Q81.07-7.33 82.44-8.74Q83.81-10.14 86.76-11.91Q89.71-13.67 92.99-13.67Q96.26-13.67 98.50-11.11Q100.73-8.56 100.73-4.17L100.73-4.17L100.30 3.90L101.09 21.18L91.37 22.98L92.23 4.40ZM106.49 29.75L106.49 29.75Q106.49 23.41 118.30 19.81L118.30 19.81Q115.49 18.37 115.49 16.07L115.49 16.07Q115.49 15.13 116.21 14.19Q116.93 13.26 118.30 12.25L118.30 12.25L118.30 11.67Q113.11 11.67 110.05 8.79Q106.99 5.91 106.99 1.09L106.99 1.09Q106.99-5.17 112.10-9.82Q117.22-14.46 124.20-14.46L124.20-14.46Q126.00-14.46 129.46-13.74Q132.91-13.02 136.22-13.02L136.22-13.02L141.77-13.02L141.05-6.76L135.65-7.41Q136.37-5.32 136.37-2.65Q136.37 0.01 135.11 2.64Q133.85 5.27 132.08 6.85Q130.32 8.43 128.56 9.62Q126.79 10.81 125.53 11.71Q124.27 12.61 124.27 13.33L124.27 13.33Q124.27 14.70 127.15 15.71L127.15 15.71Q134.78 18.80 137.48 20.96Q140.18 23.12 140.18 26.29L140.18 26.29Q140.18 31.62 134.82 35.04Q129.46 38.46 122.04 38.46Q114.62 38.46 110.56 36.08Q106.49 33.71 106.49 29.75ZM128.23-0.49L128.23-0.49Q128.23-4.02 126.65-5.68Q125.06-7.33 121.68-7.33L121.68-7.33Q115.13-7.33 115.13-0.89Q115.13 5.55 122.11 5.55L122.11 5.55Q128.23 5.55 128.23-0.49ZM130.82 27.37L130.82 27.37Q130.82 26.07 129.46 24.96Q128.09 23.84 124.56 22.33L124.56 22.33Q119.30 23.77 117.32 24.99Q115.34 26.22 115.34 28.02Q115.34 29.82 117.32 30.93Q119.30 32.05 122.83 32.05Q126.36 32.05 128.59 30.75Q130.82 29.46 130.82 27.37ZM145.58-12.23L155.23-14.03L154.37 3.90L155.16 20.82L145.51 22.62L146.38 5.12L145.58-12.23ZM145.08-24.58Q145.08-26.99 146.95-28.90Q148.82-30.81 151.27-30.81Q153.72-30.81 155.02-29.47Q156.31-28.14 156.31-25.48Q156.31-22.81 154.48-20.91Q152.64-19.00 150.23-19.00Q147.82-19.00 146.45-20.58Q145.08-22.17 145.08-24.58ZM184.03 4.40Q184.03-0.57 183.17-2.22Q182.30-3.88 179.14-3.88Q175.97-3.88 171.94-1.36L171.94-1.36L171.94 3.90L172.73 20.82L163.08 22.62L163.94 5.12Q163.66-4.53 162.36-12.16L162.36-12.16L171.07-14.03Q171.58-9.85 171.79-5.89L171.79-5.89Q172.87-7.33 174.24-8.74Q175.61-10.14 178.56-11.91Q181.51-13.67 184.79-13.67Q188.06-13.67 190.30-11.11Q192.53-8.56 192.53-4.17L192.53-4.17L192.10 3.90L192.89 21.18L183.17 22.98L184.03 4.40ZM213.77 15.27L213.77 15.27Q215.86 15.27 218.16 14.19Q220.46 13.11 221.76 12.03L221.76 12.03L223.06 10.95L226.37 14.99Q225.65 16.21 224.14 17.79Q222.62 19.38 221.08 20.49Q219.53 21.61 216.97 22.51Q214.42 23.41 211.68 23.41L211.68 23.41Q205.85 23.41 202.18 18.98Q198.50 14.55 198.50 7.57L198.50 7.57Q198.50-1.21 203.62-7.84Q208.73-14.46 215.57-14.46L215.57-14.46Q220.82-14.46 223.74-11.51Q226.66-8.56 226.66-3.23L226.66-3.23Q226.66-0.06 225.58 3.97L225.58 3.97L224.14 5.48L206.14 7.14Q207.36 15.27 213.77 15.27ZM213.77-7.05L213.77-7.05Q210.60-7.05 208.44-4.49Q206.28-1.93 205.92 2.03L205.92 2.03L218.16 0.51Q218.38-1.14 218.38-2.22L218.38-2.22Q218.38-7.05 213.77-7.05Z"/><path xml:space="preserve" font-family="Acme" font-size="72" font-style="normal" font-weight="normal" style="stroke: none; stroke-width: 1; stroke-dasharray: none; stroke-linecap: butt; stroke-dashoffset: 0; stroke-linejoin: miter; stroke-miterlimit: 4; is-custom-font: none; font-file-url: none; fill: rgb(0,153,255); fill-rule: nonzero; opacity: 1; white-space: pre;" d="M-196.92-27.06L-197.71-19.36L-213.05-19.36L-213.48-6.11L-199.73-6.11L-200.52 1.52L-213.70 1.52L-213.77 3.90L-212.90 22.62L-222.98 22.62L-222.12 5.12L-222.98-27.06L-196.92-27.06ZM-184.10 22.62L-184.10 22.62Q-187.99 22.62-190.40 20.06Q-192.82 17.51-192.82 13.33L-192.82 13.33L-192.38 5.05L-193.18-12.23L-183.53-14.03L-184.46 7.86Q-184.46 10.95-183.35 12.39Q-182.23 13.83-179.78 13.83Q-177.34 13.83-173.02 11.39L-173.02 11.39L-173.02 7.07L-173.81-11.87L-164.09-13.67L-164.95 4.33L-164.88 10.23Q-164.88 14.84-162.50 19.52L-162.50 19.52L-169.99 22.83Q-172.37 18.15-172.87 15.35L-172.87 15.35Q-179.35 22.62-184.10 22.62ZM-135.14 4.40Q-135.14-0.57-136.01-2.22Q-136.87-3.88-140.04-3.88Q-143.21-3.88-147.24-1.36L-147.24-1.36L-147.24 3.90L-146.45 20.82L-156.10 22.62L-155.23 5.12Q-155.52-4.53-156.82-12.16L-156.82-12.16L-148.10-14.03Q-147.60-9.85-147.38-5.89L-147.38-5.89Q-146.30-7.33-144.94-8.74Q-143.57-10.14-140.62-11.91Q-137.66-13.67-134.39-13.67Q-131.11-13.67-128.88-11.11Q-126.65-8.56-126.65-4.17L-126.65-4.17L-127.08 3.90L-126.29 21.18L-136.01 22.98L-135.14 4.40ZM-105.98-5.10Q-109.15-5.10-110.88-2.83Q-112.61-0.57-112.61 4.11Q-112.61 8.79-110.84 11.64Q-109.08 14.48-105.70 14.48L-105.70 14.48Q-103.97 14.48-102.31 13.40Q-100.66 12.32-99.79 11.24L-99.79 11.24L-99.00 10.09L-95.40 13.83Q-95.62 14.19-95.94 14.84Q-96.26 15.49-97.52 17.15Q-98.78 18.80-100.19 20.06Q-101.59 21.32-103.82 22.37Q-106.06 23.41-108.50 23.41L-108.50 23.41Q-113.90 23.41-117.29 19.02Q-120.67 14.63-120.67 7.57L-120.67 7.57Q-120.67-1.21-115.56-7.84Q-110.45-14.46-103.61-14.46L-103.61-14.46Q-101.52-14.46-99.43-13.85Q-97.34-13.24-95.18-11.94L-95.18-11.94L-100.22-3.09Q-102.82-5.10-105.98-5.10ZM-92.02-12.23L-87.84-12.23L-87.84-20.08L-78.12-21.95L-79.06-12.23L-70.34-12.23L-71.14-6.33L-79.34-6.33L-79.70 8.72Q-79.70 12.11-79.06 13.22Q-78.41 14.34-76.68 14.34Q-74.95 14.34-72.07 13.55L-72.07 13.55L-71.64 18.66Q-76.39 22.62-79.99 22.62Q-83.59 22.62-85.90 19.99Q-88.20 17.36-88.20 13.11L-88.20 13.11L-87.77 5.05L-87.84-6.33L-92.81-6.33L-92.02-12.23ZM-65.09-12.23L-55.44-14.03L-56.30 3.90L-55.51 20.82L-65.16 22.62L-64.30 5.12L-65.09-12.23ZM-65.59-24.58Q-65.59-26.99-63.72-28.90Q-61.85-30.81-59.40-30.81Q-56.95-30.81-55.66-29.47Q-54.36-28.14-54.36-25.48Q-54.36-22.81-56.20-20.91Q-58.03-19.00-60.44-19.00Q-62.86-19.00-64.22-20.58Q-65.59-22.17-65.59-24.58ZM-49.68 7.57Q-49.68-1.65-44.71-8.05Q-39.74-14.46-33.08-14.46Q-26.42-14.46-22.72-10.14Q-19.01-5.82-19.01 1.31L-19.01 1.31Q-19.01 10.81-23.80 17.11Q-28.58 23.41-35.86 23.41L-35.86 23.41Q-41.83 23.41-45.76 18.91Q-49.68 14.41-49.68 7.57L-49.68 7.57ZM-27.07 5.05L-27.07 5.05Q-27.07-5.39-34.20-5.39L-34.20-5.39Q-41.62-5.39-41.62 4.40L-41.62 4.40Q-41.62 9.51-39.53 12.39Q-37.44 15.27-34.02 15.27Q-30.60 15.27-28.84 12.65Q-27.07 10.02-27.07 5.05ZM8.06 4.40Q8.06-0.57 7.20-2.22Q6.34-3.88 3.17-3.88Q0.00-3.88-4.03-1.36L-4.03-1.36L-4.03 3.90L-3.24 20.82L-12.89 22.62L-12.02 5.12Q-12.31-4.53-13.61-12.16L-13.61-12.16L-4.90-14.03Q-4.39-9.85-4.18-5.89L-4.18-5.89Q-3.10-7.33-1.73-8.74Q-0.36-10.14 2.59-11.91Q5.54-13.67 8.82-13.67Q12.10-13.67 14.33-11.11Q16.56-8.56 16.56-4.17L16.56-4.17L16.13 3.90L16.92 21.18L7.20 22.98L8.06 4.40ZM63.86 22.62L37.51 22.62L38.38 5.12L37.51-27.06L64.51-27.06L63.72-19.36L47.52-19.36L47.09-6.61L61.49-6.61L60.70 1.02L46.80 1.02L46.73 3.90L47.23 14.99L64.66 14.99L63.86 22.62ZM92.23 4.40Q92.23-0.57 91.37-2.22Q90.50-3.88 87.34-3.88Q84.17-3.88 80.14-1.36L80.14-1.36L80.14 3.90L80.93 20.82L71.28 22.62L72.14 5.12Q71.86-4.53 70.56-12.16L70.56-12.16L79.27-14.03Q79.78-9.85 79.99-5.89L79.99-5.89Q81.07-7.33 82.44-8.74Q83.81-10.14 86.76-11.91Q89.71-13.67 92.99-13.67Q96.26-13.67 98.50-11.11Q100.73-8.56 100.73-4.17L100.73-4.17L100.30 3.90L101.09 21.18L91.37 22.98L92.23 4.40ZM106.49 29.75L106.49 29.75Q106.49 23.41 118.30 19.81L118.30 19.81Q115.49 18.37 115.49 16.07L115.49 16.07Q115.49 15.13 116.21 14.19Q116.93 13.26 118.30 12.25L118.30 12.25L118.30 11.67Q113.11 11.67 110.05 8.79Q106.99 5.91 106.99 1.09L106.99 1.09Q106.99-5.17 112.10-9.82Q117.22-14.46 124.20-14.46L124.20-14.46Q126.00-14.46 129.46-13.74Q132.91-13.02 136.22-13.02L136.22-13.02L141.77-13.02L141.05-6.76L135.65-7.41Q136.37-5.32 136.37-2.65Q136.37 0.01 135.11 2.64Q133.85 5.27 132.08 6.85Q130.32 8.43 128.56 9.62Q126.79 10.81 125.53 11.71Q124.27 12.61 124.27 13.33L124.27 13.33Q124.27 14.70 127.15 15.71L127.15 15.71Q134.78 18.80 137.48 20.96Q140.18 23.12 140.18 26.29L140.18 26.29Q140.18 31.62 134.82 35.04Q129.46 38.46 122.04 38.46Q114.62 38.46 110.56 36.08Q106.49 33.71 106.49 29.75ZM128.23-0.49L128.23-0.49Q128.23-4.02 126.65-5.68Q125.06-7.33 121.68-7.33L121.68-7.33Q115.13-7.33 115.13-0.89Q115.13 5.55 122.11 5.55L122.11 5.55Q128.23 5.55 128.23-0.49ZM130.82 27.37L130.82 27.37Q130.82 26.07 129.46 24.96Q128.09 23.84 124.56 22.33L124.56 22.33Q119.30 23.77 117.32 24.99Q115.34 26.22 115.34 28.02Q115.34 29.82 117.32 30.93Q119.30 32.05 122.83 32.05Q126.36 32.05 128.59 30.75Q130.82 29.46 130.82 27.37ZM145.58-12.23L155.23-14.03L154.37 3.90L155.16 20.82L145.51 22.62L146.38 5.12L145.58-12.23ZM145.08-24.58Q145.08-26.99 146.95-28.90Q148.82-30.81 151.27-30.81Q153.72-30.81 155.02-29.47Q156.31-28.14 156.31-25.48Q156.31-22.81 154.48-20.91Q152.64-19.00 150.23-19.00Q147.82-19.00 146.45-20.58Q145.08-22.17 145.08-24.58ZM184.03 4.40Q184.03-0.57 183.17-2.22Q182.30-3.88 179.14-3.88Q175.97-3.88 171.94-1.36L171.94-1.36L171.94 3.90L172.73 20.82L163.08 22.62L163.94 5.12Q163.66-4.53 162.36-12.16L162.36-12.16L171.07-14.03Q171.58-9.85 171.79-5.89L171.79-5.89Q172.87-7.33 174.24-8.74Q175.61-10.14 178.56-11.91Q181.51-13.67 184.79-13.67Q188.06-13.67 190.30-11.11Q192.53-8.56 192.53-4.17L192.53-4.17L192.10 3.90L192.89 21.18L183.17 22.98L184.03 4.40ZM213.77 15.27L213.77 15.27Q215.86 15.27 218.16 14.19Q220.46 13.11 221.76 12.03L221.76 12.03L223.06 10.95L226.37 14.99Q225.65 16.21 224.14 17.79Q222.62 19.38 221.08 20.49Q219.53 21.61 216.97 22.51Q214.42 23.41 211.68 23.41L211.68 23.41Q205.85 23.41 202.18 18.98Q198.50 14.55 198.50 7.57L198.50 7.57Q198.50-1.21 203.62-7.84Q208.73-14.46 215.57-14.46L215.57-14.46Q220.82-14.46 223.74-11.51Q226.66-8.56 226.66-3.23L226.66-3.23Q226.66-0.06 225.58 3.97L225.58 3.97L224.14 5.48L206.14 7.14Q207.36 15.27 213.77 15.27ZM213.77-7.05L213.77-7.05Q210.60-7.05 208.44-4.49Q206.28-1.93 205.92 2.03L205.92 2.03L218.16 0.51Q218.38-1.14 218.38-2.22L218.38-2.22Q218.38-7.05 213.77-7.05Z"/><path xml:space="preserve" font-family="Acme" font-size="72" font-style="normal" font-weight="normal" style="stroke: none; stroke-width: 1; stroke-dasharray: none; stroke-linecap: butt; stroke-dashoffset: 0; stroke-linejoin: miter; stroke-miterlimit: 4; is-custom-font: none; font-file-url: none; fill: rgb(0,153,255); fill-rule: nonzero; opacity: 1; white-space: pre;" d="M-196.92-27.06L-197.71-19.36L-213.05-19.36L-213.48-6.11L-199.73-6.11L-200.52 1.52L-213.70 1.52L-213.77 3.90L-212.90 22.62L-222.98 22.62L-222.12 5.12L-222.98-27.06L-196.92-27.06ZM-184.10 22.62L-184.10 22.62Q-187.99 22.62-190.40 20.06Q-192.82 17.51-192.82 13.33L-192.82 13.33L-192.38 5.05L-193.18-12.23L-183.53-14.03L-184.46 7.86Q-184.46 10.95-183.35 12.39Q-182.23 13.83-179.78 13.83Q-177.34 13.83-173.02 11.39L-173.02 11.39L-173.02 7.07L-173.81-11.87L-164.09-13.67L-164.95 4.33L-164.88 10.23Q-164.88 14.84-162.50 19.52L-162.50 19.52L-169.99 22.83Q-172.37 18.15-172.87 15.35L-172.87 15.35Q-179.35 22.62-184.10 22.62ZM-135.14 4.40Q-135.14-0.57-136.01-2.22Q-136.87-3.88-140.04-3.88Q-143.21-3.88-147.24-1.36L-147.24-1.36L-147.24 3.90L-146.45 20.82L-156.10 22.62L-155.23 5.12Q-155.52-4.53-156.82-12.16L-156.82-12.16L-148.10-14.03Q-147.60-9.85-147.38-5.89L-147.38-5.89Q-146.30-7.33-144.94-8.74Q-143.57-10.14-140.62-11.91Q-137.66-13.67-134.39-13.67Q-131.11-13.67-128.88-11.11Q-126.65-8.56-126.65-4.17L-126.65-4.17L-127.08 3.90L-126.29 21.18L-136.01 22.98L-135.14 4.40ZM-105.98-5.10Q-109.15-5.10-110.88-2.83Q-112.61-0.57-112.61 4.11Q-112.61 8.79-110.84 11.64Q-109.08 14.48-105.70 14.48L-105.70 14.48Q-103.97 14.48-102.31 13.40Q-100.66 12.32-99.79 11.24L-99.79 11.24L-99.00 10.09L-95.40 13.83Q-95.62 14.19-95.94 14.84Q-96.26 15.49-97.52 17.15Q-98.78 18.80-100.19 20.06Q-101.59 21.32-103.82 22.37Q-106.06 23.41-108.50 23.41L-108.50 23.41Q-113.90 23.41-117.29 19.02Q-120.67 14.63-120.67 7.57L-120.67 7.57Q-120.67-1.21-115.56-7.84Q-110.45-14.46-103.61-14.46L-103.61-14.46Q-101.52-14.46-99.43-13.85Q-97.34-13.24-95.18-11.94L-95.18-11.94L-100.22-3.09Q-102.82-5.10-105.98-5.10ZM-92.02-12.23L-87.84-12.23L-87.84-20.08L-78.12-21.95L-79.06-12.23L-70.34-12.23L-71.14-6.33L-79.34-6.33L-79.70 8.72Q-79.70 12.11-79.06 13.22Q-78.41 14.34-76.68 14.34Q-74.95 14.34-72.07 13.55L-72.07 13.55L-71.64 18.66Q-76.39 22.62-79.99 22.62Q-83.59 22.62-85.90 19.99Q-88.20 17.36-88.20 13.11L-88.20 13.11L-87.77 5.05L-87.84-6.33L-92.81-6.33L-92.02-12.23ZM-65.09-12.23L-55.44-14.03L-56.30 3.90L-55.51 20.82L-65.16 22.62L-64.30 5.12L-65.09-12.23ZM-65.59-24.58Q-65.59-26.99-63.72-28.90Q-61.85-30.81-59.40-30.81Q-56.95-30.81-55.66-29.47Q-54.36-28.14-54.36-25.48Q-54.36-22.81-56.20-20.91Q-58.03-19.00-60.44-19.00Q-62.86-19.00-64.22-20.58Q-65.59-22.17-65.59-24.58ZM-49.68 7.57Q-49.68-1.65-44.71-8.05Q-39.74-14.46-33.08-14.46Q-26.42-14.46-22.72-10.14Q-19.01-5.82-19.01 1.31L-19.01 1.31Q-19.01 10.81-23.80 17.11Q-28.58 23.41-35.86 23.41L-35.86 23.41Q-41.83 23.41-45.76 18.91Q-49.68 14.41-49.68 7.57L-49.68 7.57ZM-27.07 5.05L-27.07 5.05Q-27.07-5.39-34.20-5.39L-34.20-5.39Q-41.62-5.39-41.62 4.40L-41.62 4.40Q-41.62 9.51-39.53 12.39Q-37.44 15.27-34.02 15.27Q-30.60 15.27-28.84 12.65Q-27.07 10.02-27.07 5.05ZM8.06 4.40Q8.06-0.57 7.20-2.22Q6.34-3.88 3.17-3.88Q0.00-3.88-4.03-1.36L-4.03-1.36L-4.03 3.90L-3.24 20.82L-12.89 22.62L-12.02 5.12Q-12.31-4.53-13.61-12.16L-13.61-12.16L-4.90-14.03Q-4.39-9.85-4.18-5.89L-4.18-5.89Q-3.10-7.33-1.73-8.74Q-0.36-10.14 2.59-11.91Q5.54-13.67 8.82-13.67Q12.10-13.67 14.33-11.11Q16.56-8.56 16.56-4.17L16.56-4.17L16.13 3.90L16.92 21.18L7.20 22.98L8.06 4.40ZM63.86 22.62L37.51 22.62L38.38 5.12L37.51-27.06L64.51-27.06L63.72-19.36L47.52-19.36L47.09-6.61L61.49-6.61L60.70 1.02L46.80 1.02L46.73 3.90L47.23 14.99L64.66 14.99L63.86 22.62ZM92.23 4.40Q92.23-0.57 91.37-2.22Q90.50-3.88 87.34-3.88Q84.17-3.88 80.14-1.36L80.14-1.36L80.14 3.90L80.93 20.82L71.28 22.62L72.14 5.12Q71.86-4.53 70.56-12.16L70.56-12.16L79.27-14.03Q79.78-9.85 79.99-5.89L79.99-5.89Q81.07-7.33 82.44-8.74Q83.81-10.14 86.76-11.91Q89.71-13.67 92.99-13.67Q96.26-13.67 98.50-11.11Q100.73-8.56 100.73-4.17L100.73-4.17L100.30 3.90L101.09 21.18L91.37 22.98L92.23 4.40ZM106.49 29.75L106.49 29.75Q106.49 23.41 118.30 19.81L118.30 19.81Q115.49 18.37 115.49 16.07L115.49 16.07Q115.49 15.13 116.21 14.19Q116.93 13.26 118.30 12.25L118.30 12.25L118.30 11.67Q113.11 11.67 110.05 8.79Q106.99 5.91 106.99 1.09L106.99 1.09Q106.99-5.17 112.10-9.82Q117.22-14.46 124.20-14.46L124.20-14.46Q126.00-14.46 129.46-13.74Q132.91-13.02 136.22-13.02L136.22-13.02L141.77-13.02L141.05-6.76L135.65-7.41Q136.37-5.32 136.37-2.65Q136.37 0.01 135.11 2.64Q133.85 5.27 132.08 6.85Q130.32 8.43 128.56 9.62Q126.79 10.81 125.53 11.71Q124.27 12.61 124.27 13.33L124.27 13.33Q124.27 14.70 127.15 15.71L127.15 15.71Q134.78 18.80 137.48 20.96Q140.18 23.12 140.18 26.29L140.18 26.29Q140.18 31.62 134.82 35.04Q129.46 38.46 122.04 38.46Q114.62 38.46 110.56 36.08Q106.49 33.71 106.49 29.75ZM128.23-0.49L128.23-0.49Q128.23-4.02 126.65-5.68Q125.06-7.33 121.68-7.33L121.68-7.33Q115.13-7.33 115.13-0.89Q115.13 5.55 122.11 5.55L122.11 5.55Q128.23 5.55 128.23-0.49ZM130.82 27.37L130.82 27.37Q130.82 26.07 129.46 24.96Q128.09 23.84 124.56 22.33L124.56 22.33Q119.30 23.77 117.32 24.99Q115.34 26.22 115.34 28.02Q115.34 29.82 117.32 30.93Q119.30 32.05 122.83 32.05Q126.36 32.05 128.59 30.75Q130.82 29.46 130.82 27.37ZM145.58-12.23L155.23-14.03L154.37 3.90L155.16 20.82L145.51 22.62L146.38 5.12L145.58-12.23ZM145.08-24.58Q145.08-26.99 146.95-28.90Q148.82-30.81 151.27-30.81Q153.72-30.81 155.02-29.47Q156.31-28.14 156.31-25.48Q156.31-22.81 154.48-20.91Q152.64-19.00 150.23-19.00Q147.82-19.00 146.45-20.58Q145.08-22.17 145.08-24.58ZM184.03 4.40Q184.03-0.57 183.17-2.22Q182.30-3.88 179.14-3.88Q175.97-3.88 171.94-1.36L171.94-1.36L171.94 3.90L172.73 20.82L163.08 22.62L163.94 5.12Q163.66-4.53 162.36-12.16L162.36-12.16L171.07-14.03Q171.58-9.85 171.79-5.89L171.79-5.89Q172.87-7.33 174.24-8.74Q175.61-10.14 178.56-11.91Q181.51-13.67 184.79-13.67Q188.06-13.67 190.30-11.11Q192.53-8.56 192.53-4.17L192.53-4.17L192.10 3.90L192.89 21.18L183.17 22.98L184.03 4.40ZM213.77 15.27L213.77 15.27Q215.86 15.27 218.16 14.19Q220.46 13.11 221.76 12.03L221.76 12.03L223.06 10.95L226.37 14.99Q225.65 16.21 224.14 17.79Q222.62 19.38 221.08 20.49Q219.53 21.61 216.97 22.51Q214.42 23.41 211.68 23.41L211.68 23.41Q205.85 23.41 202.18 18.98Q198.50 14.55 198.50 7.57L198.50 7.57Q198.50-1.21 203.62-7.84Q208.73-14.46 215.57-14.46L215.57-14.46Q220.82-14.46 223.74-11.51Q226.66-8.56 226.66-3.23L226.66-3.23Q226.66-0.06 225.58 3.97L225.58 3.97L224.14 5.48L206.14 7.14Q207.36 15.27 213.77 15.27ZM213.77-7.05L213.77-7.05Q210.60-7.05 208.44-4.49Q206.28-1.93 205.92 2.03L205.92 2.03L218.16 0.51Q218.38-1.14 218.38-2.22L218.38-2.22Q218.38-7.05 213.77-7.05Z"/></g>
<path xml:space="preserve" font-family="Acme" font-size="72" font-style="normal" font-weight="normal" style="stroke: none; stroke-width: 1; stroke-dasharray: none; stroke-linecap: butt; stroke-dashoffset: 0; stroke-linejoin: miter; stroke-miterlimit: 4; is-custom-font: none; font-file-url: none; fill: rgb(0,153,255); fill-rule: nonzero; opacity: 1; white-space: pre;" d="M-196.92-27.06L-197.71-19.36L-213.05-19.36L-213.48-6.11L-199.73-6.11L-200.52 1.52L-213.70 1.52L-213.77 3.90L-212.90 22.62L-222.98 22.62L-222.12 5.12L-222.98-27.06L-196.92-27.06ZM-184.10 22.62L-184.10 22.62Q-187.99 22.62-190.40 20.06Q-192.82 17.51-192.82 13.33L-192.82 13.33L-192.38 5.05L-193.18-12.23L-183.53-14.03L-184.46 7.86Q-184.46 10.95-183.35 12.39Q-182.23 13.83-179.78 13.83Q-177.34 13.83-173.02 11.39L-173.02 11.39L-173.02 7.07L-173.81-11.87L-164.09-13.67L-164.95 4.33L-164.88 10.23Q-164.88 14.84-162.50 19.52L-162.50 19.52L-169.99 22.83Q-172.37 18.15-172.87 15.35L-172.87 15.35Q-179.35 22.62-184.10 22.62ZM-135.14 4.40Q-135.14-0.57-136.01-2.22Q-136.87-3.88-140.04-3.88Q-143.21-3.88-147.24-1.36L-147.24-1.36L-147.24 3.90L-146.45 20.82L-156.10 22.62L-155.23 5.12Q-155.52-4.53-156.82-12.16L-156.82-12.16L-148.10-14.03Q-147.60-9.85-147.38-5.89L-147.38-5.89Q-146.30-7.33-144.94-8.74Q-143.57-10.14-140.62-11.91Q-137.66-13.67-134.39-13.67Q-131.11-13.67-128.88-11.11Q-126.65-8.56-126.65-4.17L-126.65-4.17L-127.08 3.90L-126.29 21.18L-136.01 22.98L-135.14 4.40ZM-105.98-5.10Q-109.15-5.10-110.88-2.83Q-112.61-0.57-112.61 4.11Q-112.61 8.79-110.84 11.64Q-109.08 14.48-105.70 14.48L-105.70 14.48Q-103.97 14.48-102.31 13.40Q-100.66 12.32-99.79 11.24L-99.79 11.24L-99.00 10.09L-95.40 13.83Q-95.62 14.19-95.94 14.84Q-96.26 15.49-97.52 17.15Q-98.78 18.80-100.19 20.06Q-101.59 21.32-103.82 22.37Q-106.06 23.41-108.50 23.41L-108.50 23.41Q-113.90 23.41-117.29 19.02Q-120.67 14.63-120.67 7.57L-120.67 7.57Q-120.67-1.21-115.56-7.84Q-110.45-14.46-103.61-14.46L-103.61-14.46Q-101.52-14.46-99.43-13.85Q-97.34-13.24-95.18-11.94L-95.18-11.94L-100.22-3.09Q-102.82-5.10-105.98-5.10ZM-92.02-12.23L-87.84-12.23L-87.84-20.08L-78.12-21.95L-79.06-12.23L-70.34-12.23L-71.14-6.33L-79.34-6.33L-79.70 8.72Q-79.70 12.11-79.06 13.22Q-78.41 14.34-76.68 14.34Q-74.95 14.34-72.07 13.55L-72.07 13.55L-71.64 18.66Q-76.39 22.62-79.99 22.62Q-83.59 22.62-85.90 19.99Q-88.20 17.36-88.20 13.11L-88.20 13.11L-87.77 5.05L-87.84-6.33L-92.81-6.33L-92.02-12.23ZM-65.09-12.23L-55.44-14.03L-56.30 3.90L-55.51 20.82L-65.16 22.62L-64.30 5.12L-65.09-12.23ZM-65.59-24.58Q-65.59-26.99-63.72-28.90Q-61.85-30.81-59.40-30.81Q-56.95-30.81-55.66-29.47Q-54.36-28.14-54.36-25.48Q-54.36-22.81-56.20-20.91Q-58.03-19.00-60.44-19.00Q-62.86-19.00-64.22-20.58Q-65.59-22.17-65.59-24.58ZM-49.68 7.57Q-49.68-1.65-44.71-8.05Q-39.74-14.46-33.08-14.46Q-26.42-14.46-22.72-10.14Q-19.01-5.82-19.01 1.31L-19.01 1.31Q-19.01 10.81-23.80 17.11Q-28.58 23.41-35.86 23.41L-35.86 23.41Q-41.83 23.41-45.76 18.91Q-49.68 14.41-49.68 7.57L-49.68 7.57ZM-27.07 5.05L-27.07 5.05Q-27.07-5.39-34.20-5.39L-34.20-5.39Q-41.62-5.39-41.62 4.40L-41.62 4.40Q-41.62 9.51-39.53 12.39Q-37.44 15.27-34.02 15.27Q-30.60 15.27-28.84 12.65Q-27.07 10.02-27.07 5.05ZM8.06 4.40Q8.06-0.57 7.20-2.22Q6.34-3.88 3.17-3.88Q0.00-3.88-4.03-1.36L-4.03-1.36L-4.03 3.90L-3.24 20.82L-12.89 22.62L-12.02 5.12Q-12.31-4.53-13.61-12.16L-13.61-12.16L-4.90-14.03Q-4.39-9.85-4.18-5.89L-4.18-5.89Q-3.10-7.33-1.73-8.74Q-0.36-10.14 2.59-11.91Q5.54-13.67 8.82-13.67Q12.10-13.67 14.33-11.11Q16.56-8.56 16.56-4.17L16.56-4.17L16.13 3.90L16.92 21.18L7.20 22.98L8.06 4.40ZM63.86 22.62L37.51 22.62L38.38 5.12L37.51-27.06L64.51-27.06L63.72-19.36L47.52-19.36L47.09-6.61L61.49-6.61L60.70 1.02L46.80 1.02L46.73 3.90L47.23 14.99L64.66 14.99L63.86 22.62ZM92.23 4.40Q92.23-0.57 91.37-2.22Q90.50-3.88 87.34-3.88Q84.17-3.88 80.14-1.36L80.14-1.36L80.14 3.90L80.93 20.82L71.28 22.62L72.14 5.12Q71.86-4.53 70.56-12.16L70.56-12.16L79.27-14.03Q79.78-9.85 79.99-5.89L79.99-5.89Q81.07-7.33 82.44-8.74Q83.81-10.14 86.76-11.91Q89.71-13.67 92.99-13.67Q96.26-13.67 98.50-11.11Q100.73-8.56 100.73-4.17L100.73-4.17L100.30 3.90L101.09 21.18L91.37 22.98L92.23 4.40ZM106.49 29.75L106.49 29.75Q106.49 23.41 118.30 19.81L118.30 19.81Q115.49 18.37 115.49 16.07L115.49 16.07Q115.49 15.13 116.21 14.19Q116.93 13.26 118.30 12.25L118.30 12.25L118.30 11.67Q113.11 11.67 110.05 8.79Q106.99 5.91 106.99 1.09L106.99 1.09Q106.99-5.17 112.10-9.82Q117.22-14.46 124.20-14.46L124.20-14.46Q126.00-14.46 129.46-13.74Q132.91-13.02 136.22-13.02L136.22-13.02L141.77-13.02L141.05-6.76L135.65-7.41Q136.37-5.32 136.37-2.65Q136.37 0.01 135.11 2.64Q133.85 5.27 132.08 6.85Q130.32 8.43 128.56 9.62Q126.79 10.81 125.53 11.71Q124.27 12.61 124.27 13.33L124.27 13.33Q124.27 14.70 127.15 15.71L127.15 15.71Q134.78 18.80 137.48 20.96Q140.18 23.12 140.18 26.29L140.18 26.29Q140.18 31.62 134.82 35.04Q129.46 38.46 122.04 38.46Q114.62 38.46 110.56 36.08Q106.49 33.71 106.49 29.75ZM128.23-0.49L128.23-0.49Q128.23-4.02 126.65-5.68Q125.06-7.33 121.68-7.33L121.68-7.33Q115.13-7.33 115.13-0.89Q115.13 5.55 122.11 5.55L122.11 5.55Q128.23 5.55 128.23-0.49ZM130.82 27.37L130.82 27.37Q130.82 26.07 129.46 24.96Q128.09 23.84 124.56 22.33L124.56 22.33Q119.30 23.77 117.32 24.99Q115.34 26.22 115.34 28.02Q115.34 29.82 117.32 30.93Q119.30 32.05 122.83 32.05Q126.36 32.05 128.59 30.75Q130.82 29.46 130.82 27.37ZM145.58-12.23L155.23-14.03L154.37 3.90L155.16 20.82L145.51 22.62L146.38 5.12L145.58-12.23ZM145.08-24.58Q145.08-26.99 146.95-28.90Q148.82-30.81 151.27-30.81Q153.72-30.81 155.02-29.47Q156.31-28.14 156.31-25.48Q156.31-22.81 154.48-20.91Q152.64-19.00 150.23-19.00Q147.82-19.00 146.45-20.58Q145.08-22.17 145.08-24.58ZM184.03 4.40Q184.03-0.57 183.17-2.22Q182.30-3.88 179.14-3.88Q175.97-3.88 171.94-1.36L171.94-1.36L171.94 3.90L172.73 20.82L163.08 22.62L163.94 5.12Q163.66-4.53 162.36-12.16L162.36-12.16L171.07-14.03Q171.58-9.85 171.79-5.89L171.79-5.89Q172.87-7.33 174.24-8.74Q175.61-10.14 178.56-11.91Q181.51-13.67 184.79-13.67Q188.06-13.67 190.30-11.11Q192.53-8.56 192.53-4.17L192.53-4.17L192.10 3.90L192.89 21.18L183.17 22.98L184.03 4.40ZM213.77 15.27L213.77 15.27Q215.86 15.27 218.16 14.19Q220.46 13.11 221.76 12.03L221.76 12.03L223.06 10.95L226.37 14.99Q225.65 16.21 224.14 17.79Q222.62 19.38 221.08 20.49Q219.53 21.61 216.97 22.51Q214.42 23.41 211.68 23.41L211.68 23.41Q205.85 23.41 202.18 18.98Q198.50 14.55 198.50 7.57L198.50 7.57Q198.50-1.21 203.62-7.84Q208.73-14.46 215.57-14.46L215.57-14.46Q220.82-14.46 223.74-11.51Q226.66-8.56 226.66-3.23L226.66-3.23Q226.66-0.06 225.58 3.97L225.58 3.97L224.14 5.48L206.14 7.14Q207.36 15.27 213.77 15.27ZM213.77-7.05L213.77-7.05Q210.60-7.05 208.44-4.49Q206.28-1.93 205.92 2.03L205.92 2.03L218.16 0.51Q218.38-1.14 218.38-2.22L218.38-2.22Q218.38-7.05 213.77-7.05Z"/></g>
</svg>